<svg xmlns="http://www.w3.org/2000/svg" viewBox="0 0 300 300"><defs><style>.a,.b{stroke:#000;}.a,.b,.c{stroke-miterlimit:10;}.a,.c{stroke-width:0.326px;}.b{stroke-width:0.163px;}.c,.d{fill:#f77d7e;}.c{stroke:#f77d7e;}</style></defs><title>Rating</title><path d="M107,114.421c-.081-.651-.374-1.758-1.091-1.97-.016,0-.016-.016-.032-.016a.744.744,0,0,0-1.075.439,1.732,1.732,0,0,0,.342,1.612,2.663,2.663,0,0,0,.261.473.677.677,0,0,0,.83.277c.016,0,.016-.017.033-.017A.734.734,0,0,0,107,114.421Z"/><path class="a" d="M94.416,250.344a19.344,19.344,0,0,0,5.8,9.087,25.93,25.93,0,0,0,2.084,1.645c.57.407,1.726.83,1.971,1.481a9.137,9.137,0,0,1,.228,1.906c.065.57.13,1.156.211,1.726a5.488,5.488,0,0,0,.733,2.98.7.7,0,0,0,1.107-.147c.473-.993.114-2.166-.016-3.224-.146-1.172-.244-2.345-.439-3.5-.277-1.742-2.329-2.361-3.583-3.338A25.965,25.965,0,0,1,95.263,250a.465.465,0,0,0-.847.342Z"/><path class="b" d="M111.416,119.681a.786.786,0,0,0,.456-.293c.831-1.172,1.564-2.166.538-3.452a25.256,25.256,0,0,0-3.648-3.811.325.325,0,0,0-.13-.065,45.972,45.972,0,0,0-3.11-6.351.473.473,0,0,0-.18-.179,23.161,23.161,0,0,0,.163-3.208.875.875,0,0,0-.277-.667c.033-3.42-2.67-5.211-5.52-7.133a14.542,14.542,0,0,0-12.75-1.612c-4.2,1.319-7.719,2.719-10.341,6.269-2.589,3.518-4.478,10.439-5.422,14.656-2.28,10.161-.977,18.271-1.531,28.579a60.8,60.8,0,0,1-2.459,15.1c-.309.961-1.172,2.247-.537,3.175a18.078,18.078,0,0,0,2.524,2.72,30.272,30.272,0,0,0,5.65,4.185c9.608,5.455,20.567,1.921,29.637-4.381a.973.973,0,0,0,.44-1.074c-2.671-6.628-3.289-10.65-4.038-17.75-.652-6.237.032-13.092-3.257-18.71a.953.953,0,0,0-1.629,0c-1.612,2.149-4.527.488-5.194-1.564-.228-.7-.538-2.833-.1-3.5.651-.993,2.3-.6,3.029-.032a.989.989,0,0,0,1.156-.147c2.866-2.491,5.813-4.331,7.9-7.539a16.341,16.341,0,0,0,2.231-5.407c1.84,4.9,4.071,9.673,5.325,14.77.537,2.182,1.319,5.618-.424,7.474a5.453,5.453,0,0,1-3.647,1.466,6.28,6.28,0,0,1-1.987-.212,4.939,4.939,0,0,0-1.71-.407.66.66,0,0,0-.57.977,3.441,3.441,0,0,0,2.492,1.254c-.684,1.856-.782,5.195.667,6.693a.7.7,0,0,0,1.156-.684,14.511,14.511,0,0,1-.846-3.094c-.065-.945.032-1.889-.082-2.834.082,0,.163.017.245.017a8.083,8.083,0,0,0,4.119-.961c2.72-1.482,3.094-4.462,2.769-7.279A27.55,27.55,0,0,0,111.416,119.681ZM80.444,99.456a25.019,25.019,0,0,0-3.6,9.266,55.349,55.349,0,0,0-.684,5.911,31.769,31.769,0,0,1-.537,5.83.342.342,0,0,1-.651,0,17.606,17.606,0,0,1-.261-6.4,55.692,55.692,0,0,1,.733-5.895,23.02,23.02,0,0,1,1.482-5.113,14.78,14.78,0,0,1,1.221-2.3A7.327,7.327,0,0,1,79.858,99C80.167,98.756,80.688,99.065,80.444,99.456Zm21.267,5.749a20.092,20.092,0,0,1-1.97,3.517c-.6.847-1.319,2.182-2.264,2.671a.531.531,0,0,1-.781-.44,6.191,6.191,0,0,1,1.156-2.915c.537-.977,1.14-1.922,1.661-2.931A11.83,11.83,0,0,0,100.62,102a21.084,21.084,0,0,0,.212-3.371.59.59,0,0,1,1.091-.293C103.323,100.352,102.607,103.12,101.711,105.205Zm9.249,13.059c-.374-1.074-.765-2.149-1.156-3.224a4.321,4.321,0,0,0-.163-.423c.18.244.375.472.57.716a12.121,12.121,0,0,1,1.075,1.352C111.661,117.287,111.319,117.776,110.96,118.264Z"/><path class="a" d="M106.254,142.853c.863-.472,1.629-1.107,2.459-1.628a7.145,7.145,0,0,1,3.306-1.01c4.787-.407,9.542.684,14.118,1.971,8.533,2.393,18.5,5.894,25.371,9.835,4.087,2.345,7.2,4.316,10.356,7.751.538.587.977.131.473-.455-2.524-3.013-4.609-4.169-7.752-6.71-3.24-2.621-8.19-5.1-12.017-6.79a106.293,106.293,0,0,0-13.109-4.478,60.8,60.8,0,0,0-13.939-2.882c-2.345-.114-5-.147-7.149.928-2.2,1.107-3.778,3.126-6.481,2.622a.5.5,0,0,0-.488.83C102.77,144.205,104.773,143.684,106.254,142.853Z"/><path class="a" d="M191.99,100.45a18.962,18.962,0,0,0,2.573-5.358c.749-2,1.417-4.022,1.97-6.09.538-2,.994-4.022,1.384-6.058.2-1.075.391-2.166.538-3.24.114-.8.5-1.889-.228-2.443a.592.592,0,0,0-.684-.081c-.847.358-.749,1.449-.863,2.231-.147.96-.31,1.921-.472,2.882-.375,2.035-.831,4.071-1.368,6.074-.521,1.938-1.075,3.875-1.71,5.781a34.991,34.991,0,0,0-1.889,5.894C191.225,100.4,191.681,100.84,191.99,100.45Z"/><path class="a" d="M198.357,89.637a.446.446,0,0,0,.749.309c.537-.439,1.124-.846,1.629-.114a3.736,3.736,0,0,1,.39,1.971,18.723,18.723,0,0,1-.293,3.94,25.771,25.771,0,0,1-.912,3.518c-.293.9-1.172,2.2-.667,3.11a.392.392,0,0,0,.439.179c.717-.195.912-.879,1.157-1.53.374-.961.7-1.955.977-2.948a20.17,20.17,0,0,0,.781-5.748c-.032-1.384-.114-3.224-1.482-4.022C200.083,87.732,198.276,88.269,198.357,89.637Z"/><path class="a" d="M204.105,97.844a21.266,21.266,0,0,1-.651,3.029,9.949,9.949,0,0,0-.847,3.094c.016.326.424.651.733.423,1.27-.944,1.628-2.98,1.954-4.429a23.958,23.958,0,0,0,.57-5.162c0-1.172.212-3.029-.879-3.843a1.332,1.332,0,0,0-2.166.928.442.442,0,0,0,.749.31c.879-.831.765,1.872.765,2.247A23.872,23.872,0,0,1,204.105,97.844Z"/><path class="a" d="M207.883,93.773c-.521-.537-1.579-.7-1.921.1-.1.212.016.553.309.521,1.238-.114.8,2.41.733,3.175a22.306,22.306,0,0,1-.684,3.86,19.821,19.821,0,0,1-3.159,6.448c-1.3,1.775-2.654,3.485-3.843,5.341-1.075,1.661-2.427,3.29-2.1,5.341a13.518,13.518,0,0,0-4.022-1.5c-.9-.195-1.791-.325-2.7-.439a9.724,9.724,0,0,0-2.052-.147.507.507,0,0,0,.147-.293,6.984,6.984,0,0,0-.554-2.687c-.309-1.009-.7-1.987-1.075-2.964a42.07,42.07,0,0,1-1.938-5.813c-.374-1.759-.5-3.859.717-5.325,1.156-1.4,3.078-1.514,4.331-2.719a.533.533,0,0,0-.374-.9c-1.726-.195-3.811.993-4.983,2.2a6.791,6.791,0,0,0-1.6,5.553,24.8,24.8,0,0,0,1.824,6.465c.423,1.059.912,2.117,1.368,3.175a14.958,14.958,0,0,0,1.465,3.241.449.449,0,0,0,.2.147,3.3,3.3,0,0,0-.57.195.828.828,0,0,0-1.254-.1c-5.5,5.488-10,11.936-14.688,18.108q-3.713,4.909-7.409,9.836a110.242,110.242,0,0,0-7.165,10.21.353.353,0,0,0,.553.423,106.264,106.264,0,0,0,7.784-9.51c2.459-3.208,4.918-6.432,7.36-9.64,4.723-6.22,9.233-12.7,14.786-18.222a.765.765,0,0,0,.2-.293c1.091.293,2.263.375,3.371.635,1.074.245,2.165.472,3.207.814a10.811,10.811,0,0,1,2.834,1.433,1.846,1.846,0,0,0,.5.261c-1.6,7.377-3.208,14.705-5.455,21.918A176.545,176.545,0,0,1,183.7,164.2c-1.5,3.24-3.045,6.481-4.852,9.558a23.676,23.676,0,0,1-6.221,7.393c-6.3,4.56-15.046,3.029-22.179,1.841-4.592-.766-9.2-1.58-13.792-2.378-2.1-.358-4.218-.716-6.3-1.172-2.182-.489-4.267-1.319-6.432-1.775-.782-.163-1.043.374-.31.684,2.085.912,3.6,1.449,5.618,2.279a21.465,21.465,0,0,0,4.478,1.336c-.6,2.459-.83,5.048-1.286,7.523-.472,2.524-.977,5.048-1.547,7.539-.57,2.508-1.189,5-1.889,7.475-.342,1.205-.684,2.41-1.059,3.615a19.787,19.787,0,0,0-1.025,3.468c-.066.212-.147.407-.212.619-.082.228-.163.44-.244.668-.407-.114-.8-.228-1.2-.326a47.342,47.342,0,0,0-5.456-1.042,63,63,0,0,0-10.8-.489,104.724,104.724,0,0,0-11.057,1.043c-1.905.276-3.81.57-5.7.928a40.619,40.619,0,0,0-5.423,1.189,149.456,149.456,0,0,1-8.386-18.19q-1.783-4.689-3.241-9.477c-.993-3.241-2.165-6.595-3.3-9.787-.179-.488-.668-.439-.6.163a43.333,43.333,0,0,0,1.254,6.221,45.4,45.4,0,0,0-6.09,4.136q-1.441,1.124-2.785,2.393a10,10,0,0,0-2.394,2.7.384.384,0,0,0,.522.521,12.786,12.786,0,0,0,2.572-2.02c.929-.8,1.889-1.563,2.866-2.328a68.613,68.613,0,0,1,5.716-3.941c.212.733.424,1.466.652,2.2q1.489,4.959,3.354,9.82,2.174,5.691,4.788,11.187A8.7,8.7,0,0,0,80,207.81a16.3,16.3,0,0,0-2.67.2.494.494,0,0,0-.1-.391,56.885,56.885,0,0,0-6.481-6.188c-2.149-1.938-4.331-3.843-6.514-5.748-2.019-1.759-4.054-3.485-6.188-5.113a35.958,35.958,0,0,0-6.79-4.478c-.9-.391-.8-.163.049.39.814.554,1.531,1.238,3.387,2.573,1.107.782,2.231,2.019,3.306,2.85,2.149,1.645,3.452,3.485,5.487,5.26,2.15,1.872,4.267,3.778,6.433,5.65a67.227,67.227,0,0,0,5.992,4.983h0a8.38,8.38,0,0,0-1.172,2.638c-.375,1.091-.7,2.2-.994,3.306a24.115,24.115,0,0,0-.944,5.976.518.518,0,0,0-.163-.081,54.162,54.162,0,0,0-6.22-1.515c-2.085-.488-4.169-.993-6.237-1.547-4.136-1.123-8.224-2.393-12.246-3.859a87.016,87.016,0,0,1-11.2-4.771,24.247,24.247,0,0,1-8.875-7.328,13.555,13.555,0,0,1-2.508-10.373c.831-3.876,3.436-7.132,5.862-10.161a111.344,111.344,0,0,1,15.894-16.17,115.7,115.7,0,0,1,10.34-7.621c3.6-2.362,7.442-4.316,11.057-6.644.488-.31.179-1.205-.407-.977a57.5,57.5,0,0,0-10.552,5.5,110.288,110.288,0,0,0-26.8,23.6c-2.524,3.094-5.194,6.3-6.6,10.1a14.355,14.355,0,0,0,.651,11.123c3.453,7.458,11.35,11.089,18.564,13.971A142.064,142.064,0,0,0,57.6,217.793q3.713,1.05,7.474,1.856a34.025,34.025,0,0,0,7.442,1.124.541.541,0,0,0,.472-.261.4.4,0,0,0,.635-.212c.228-.732.407-1.465.586-2.2.847.635,1.824,1.107,2.687,1.742.5.391,1.791,1.727,2.361.684.505-.928-1.107-1.758-1.693-2.133a9.054,9.054,0,0,0-3.078-1.384c.228-.961.44-1.922.717-2.882.276-.994.586-1.987.912-2.948.244-.732.6-1.465.8-2.214l.1.049a13.588,13.588,0,0,0,3.045.276c.749.033,1.743.245,2.361-.228.88,1.808,1.808,3.583,2.752,5.358a.679.679,0,0,0-.211.081,24.224,24.224,0,0,0-6.905,8.159,72.076,72.076,0,0,0-4.673,10.193,111.047,111.047,0,0,0-6.595,24.508c-.635,4.543-1.222,9.4-.57,13.972.114.83,1.319.553,1.384-.179.309-4.039.212-8.061.7-12.1a91.536,91.536,0,0,1,2.313-12.05,104.066,104.066,0,0,1,8.028-21.934,50.707,50.707,0,0,1,6.937-9.787.228.228,0,0,0,.048-.065.119.119,0,0,1,.033.065.793.793,0,0,0,1.335.065,49.748,49.748,0,0,0,5.781-.782c1.905-.276,3.811-.586,5.716-.863a97.1,97.1,0,0,1,12.1-.977,56.344,56.344,0,0,1,11.578.961c.912.179,1.807.375,2.7.6a5.115,5.115,0,0,0,2.3.439.151.151,0,0,0,.016.082c1.987,6.448,4.348,12.783,6.107,19.313a165.035,165.035,0,0,1,4.071,20.045c.537,3.794.765,7.621,1.335,11.415.13.831,1.433.6,1.433-.195a73.658,73.658,0,0,0-.9-10.178c-.456-3.4-.994-6.774-1.661-10.145a165.086,165.086,0,0,0-5.211-19.964,75.535,75.535,0,0,0-4.3-10.65.478.478,0,0,0-.179-.179,4.46,4.46,0,0,0,.521-1.205c.13-.374.276-.733.407-1.107a19.635,19.635,0,0,0,1.009-3.094c.375-1.254.749-2.524,1.091-3.794.7-2.541,1.319-5.1,1.873-7.67.554-2.508,1.01-5.048,1.4-7.588a49.463,49.463,0,0,0,.864-7.572q6.4,1.1,12.783,2.2c7.458,1.286,16.137,3.159,23.335-.2,6.269-2.931,9.591-9.623,12.457-15.535a181.594,181.594,0,0,0,8.989-22.178,144.464,144.464,0,0,0,6.334-25.99.5.5,0,0,0-.228-.5.807.807,0,0,0-.244-.6c-.065-.065-.13-.114-.195-.179a.52.52,0,0,0,.309-.391c.407-2.524,2.019-4.69,3.485-6.725,1.563-2.166,3.322-4.137,4.445-6.579a21.982,21.982,0,0,0,2.068-8.305C208.486,96.2,208.681,94.587,207.883,93.773Z"/><path class="c" d="M61.88,61.368c-6.855-1.4-13.662-2.98-20.5-4.446-1.612-.342-3.257-.667-4.853-1.058-.879-.212-.993-.977-1.286-1.759-.342-.895-.684-1.791-1.026-2.7q-2.028-5.3-4.071-10.6c-1.433-3.713-2.752-7.523-4.967-10.845a1.043,1.043,0,0,0-1.775,0c-4.136,7.735-7.865,16.105-9.656,24.735a.727.727,0,0,0,1.4.391c1.466-4.087,2.817-8.207,4.446-12.229,1.416-3.5,3.012-6.937,4.754-10.292a60.633,60.633,0,0,1,3.648,8.452c1.4,3.647,2.8,7.311,4.2,10.959.342.9.684,1.791,1.043,2.7a7.719,7.719,0,0,0,1.074,2.28c1.01,1.172,3.078,1.189,4.495,1.482,3.5.716,6.986,1.514,10.47,2.3,3.355.749,6.726,1.5,10.1,2.214-4.951,4.023-10.308,7.54-15.242,11.611-1.075.879-2.476,1.807-2.915,3.192-.472,1.514.211,3.436.456,4.95.619,3.745,1.156,7.507,1.579,11.285.407,3.5.717,7.018.961,10.536A205.585,205.585,0,0,1,27.049,89.328a1.079,1.079,0,0,0-1.466,0C18.809,94.62,11.856,99.733,5.293,105.27c-.83.7.277,2.182,1.173,1.53,6.757-4.885,13.206-10.226,19.768-15.388a210.828,210.828,0,0,0,18.418,16.1c.651.505,1.84.26,1.791-.733-.407-7.165-1.172-14.314-2.247-21.413-.261-1.775-.554-3.534-.863-5.293-.147-.8-.375-1.53.211-2.2a13.12,13.12,0,0,1,1.661-1.466c2.655-2.2,5.423-4.234,8.191-6.285,3.045-2.264,6.074-4.527,8.94-7A1.064,1.064,0,0,0,61.88,61.368Z"/><path class="a" d="M294.71,105.237C288.147,99.7,281.178,94.571,274.42,89.3a1.08,1.08,0,0,0-1.466,0,199.966,199.966,0,0,1-17.163,15.193c.472-6.79,1.221-13.581,2.3-20.306a52.456,52.456,0,0,0,.847-5.244c.081-1.547-.88-2.573-1.971-3.5-2.654-2.263-5.455-4.364-8.272-6.416-2.719-1.986-5.439-3.957-8.044-6.09,6.4-1.351,12.783-2.85,19.182-4.217.847-.18,1.694-.359,2.557-.522a11.318,11.318,0,0,0,2.443-.586c1.5-.7,1.889-2.784,2.426-4.2,1.384-3.6,2.752-7.181,4.136-10.78a75.036,75.036,0,0,1,4.267-10.08C277.4,35.9,279,39.336,280.412,42.853c1.629,4.038,2.98,8.142,4.446,12.229a.727.727,0,0,0,1.4-.391c-1.791-8.63-5.52-17-9.656-24.735a1.043,1.043,0,0,0-1.775,0,46.386,46.386,0,0,0-4.413,9.412c-1.352,3.534-2.719,7.067-4.071,10.6-.651,1.71-1.221,3.5-1.987,5.178-.358.782-1.091.766-1.856.929-.847.179-1.677.358-2.524.553-3.436.766-6.888,1.5-10.324,2.264-3.843.846-7.7,1.693-11.562,2.491a1.029,1.029,0,0,0-.456,1.694c5.13,4.4,10.78,8.142,16.04,12.392q.9.708,1.759,1.465c.537.456,1.254.929,1.351,1.661a9.264,9.264,0,0,1-.358,2.573l-.44,2.638c-.57,3.567-1.042,7.133-1.449,10.715q-.684,6.082-1.026,12.213c-.065,1.01,1.14,1.238,1.791.733A208.514,208.514,0,0,0,273.72,91.363c6.562,5.162,13.011,10.487,19.769,15.389C294.417,107.4,295.54,105.937,294.71,105.237Z"/><path class="d" d="M229.052,61.172c-9.1-2.361-18.84-1.872-27.634-5.438a.06.06,0,0,0-.016-.049q-4.347-13.215-8.7-26.446c-.081-.228-.439-.325-.553-.065q-4.788,9.845-8.859,20c-.7,1.742-1.368,3.5-2.035,5.26a3.047,3.047,0,0,1-.538,1.189,3.077,3.077,0,0,1-1.221.456c-.961.293-1.938.569-2.9.846-3.567,1.01-7.182,1.906-10.813,2.687-4.12.88-8.289,1.6-12.457,2.182-.228.033-.277.358-.131.505a187.177,187.177,0,0,0,21.121,17.31q-2.541,12.482-4.576,25.077a.306.306,0,0,0,.5.294c6.416-6.563,15.47-9.934,21.381-17.034l1.221,1.417c.423-2.361.863-4.738,1.3-7.1A41.094,41.094,0,0,1,195.23,77.6a3.818,3.818,0,0,1,1.775-2.524c2.085-.977,2.98,1.449,3.078,3.061a32.577,32.577,0,0,1-.635,8.24,2.6,2.6,0,0,1,2.378-.081,2.822,2.822,0,0,1,1.547,2.28,2.177,2.177,0,0,1,1.693-.082,3.3,3.3,0,0,1,1.775,2.687,1.8,1.8,0,0,1,2.166.472c1.075,1.254.847,3.583.863,5.113a37.171,37.171,0,0,1-.863,8.159l.391.391a.3.3,0,0,0,.5-.212c.831-6.563,1.678-13.125,2.02-19.736q.121-2.492.146-4.983c0-.961-.146-1.645.6-2.329.6-.537,1.188-1.075,1.791-1.628,2.426-2.231,4.787-4.495,7.116-6.823q3.883-3.885,7.572-7.947A.284.284,0,0,0,229.052,61.172Z"/><path class="d" d="M145.043,57.981c-9.233-1.791-18.938-.684-27.943-3.713,0-.016,0-.016-.017-.033q-5.178-12.921-10.34-25.859a.305.305,0,0,0-.586,0c-2.817,6.84-5.39,13.777-7.67,20.8-.586,1.791-1.156,3.583-1.694,5.374-.146.472-.2.814-.635,1.058a7.731,7.731,0,0,1-1.221.456c-.928.342-1.873.684-2.8,1.01-3.452,1.221-6.953,2.312-10.487,3.306Q75.64,62.06,69.5,63.273a.3.3,0,0,0-.13.5A185.645,185.645,0,0,0,91.55,79.736Q90.89,84.5,90.3,89.262a16.8,16.8,0,0,1,10.015,1.368,11.665,11.665,0,0,1,3.256,2.345,35.43,35.43,0,0,0,5.765-6.025c5.716,6.042,12.6,10.764,18.841,16.2a.3.3,0,0,0,.5-.212c.423-6.595.863-13.206.781-19.834-.016-1.661-.065-3.322-.163-4.983-.049-.944-.26-1.645.44-2.361.57-.57,1.124-1.156,1.677-1.742,2.28-2.378,4.495-4.788,6.677-7.263,2.426-2.752,4.771-5.553,7.067-8.4C145.287,58.29,145.271,58.03,145.043,57.981Z"/></svg>