<?xml version="1.0" encoding="iso-8859-1"?>
<!-- Generator: Adobe Illustrator 19.0.0, SVG Export Plug-In . SVG Version: 6.00 Build 0)  -->
<svg version="1.1" id="Capa_1" xmlns="http://www.w3.org/2000/svg" xmlns:xlink="http://www.w3.org/1999/xlink" x="0px" y="0px"
	 viewBox="0 0 512 512" style="enable-background:new 0 0 512 512;" xml:space="preserve">
<path style="fill:#FD003A;" d="M466.442,211.296c-0.051-10.095-1.016-20.026-2.46-29.837l0.104-0.234
	c-6.614-44.503-27.062-87.406-59.238-119.579C365.156,21.652,312.232,0,256,0S146.844,21.652,107.151,61.645
	c-39.693,39.692-61.644,94.621-61.644,150.852v73.974L256,345.109l120.282,33.679l0.002-0.004
	c37.68,10.515,21.765,6.073,75.174,20.98c8.31,0,15.035-6.725,15.035-15.035V212.367
	C466.493,212.007,466.444,211.656,466.442,211.296z"/>
<path style="fill:#E50027;" d="M466.442,211.296c-0.051-10.095-1.016-20.026-2.46-29.837l0.104-0.234
	c-6.614-44.503-27.062-87.406-59.238-119.579C365.156,21.652,312.232,0,256,0v345.109l120.282,33.679l0.002-0.004
	c37.68,10.515,21.765,6.073,75.174,20.98c8.31,0,15.035-6.725,15.035-15.035V212.367
	C466.493,212.007,466.444,211.656,466.442,211.296z"/>
<path style="fill:#CCEFFF;" d="M391.317,271.437H60.542c-24.959,0-45.106,20.146-45.106,45.106v30.07
	c0,24.959,20.146,45.106,45.106,45.106h330.775c8.421,0,15.035-6.615,15.035-15.035v-90.211
	C406.352,278.051,399.738,271.437,391.317,271.437z"/>
<path style="fill:#ACE3FC;" d="M406.352,286.472v90.211c0,8.421-6.614,15.035-15.035,15.035H256V271.437h135.317
	C399.738,271.437,406.352,278.051,406.352,286.472z"/>
<path style="fill:#C1001F;" d="M391.317,421.789L391.317,421.789c-8.303,0-15.035-6.732-15.035-15.035V196.261
	c0-8.303,6.732-15.035,15.035-15.035l0,0c8.303,0,15.035,6.732,15.035,15.035v210.493
	C406.352,415.057,399.621,421.789,391.317,421.789z"/>
<path style="fill:#CCEFFF;" d="M421.387,512c-41.45,0-75.176-33.726-75.176-75.176s33.726-75.176,75.176-75.176
	s75.176,33.726,75.176,75.176S462.837,512,421.387,512z"/>
<g>
</g>
<g>
</g>
<g>
</g>
<g>
</g>
<g>
</g>
<g>
</g>
<g>
</g>
<g>
</g>
<g>
</g>
<g>
</g>
<g>
</g>
<g>
</g>
<g>
</g>
<g>
</g>
<g>
</g>
</svg>
