<svg xmlns="http://www.w3.org/2000/svg" viewBox="0 0 300 300"><defs><style>.a,.b,.d,.e,.f{fill-rule:evenodd;}.b{fill:#010101;}.c{fill:none;}.d{fill:#ff7979;}.e{fill:#010000;}.f{fill:#fff;}</style></defs><title>Searchng User</title><path class="a" d="M117.048,150.253a7.011,7.011,0,0,1,2.727,3.408,9.753,9.753,0,0,1,.441,1.4,10.729,10.729,0,0,1-.1,5.29,6.01,6.01,0,0,1-5.138,4.784c.805,5.026,1.562,8.359,1.725,9.156.784,3.369.724,2.53.618,3.349l-.415.337-.527-.065-.341-.42c0-.107-1.063-3.16-2.05-7.512-1.4-6.162-1.249-5.768-1.086-6.175a1.045,1.045,0,0,1,.458-.454h0c.43-.161.96-.131,1.945-.441a3.1,3.1,0,0,0,1.724-1.183,7.949,7.949,0,0,0,.679-7.13,4.592,4.592,0,0,0-2.28-2.652c-1.22-.678-.173-1.32-1.035-5.965-3.076-15.806-20.626-16.237-27.749-6.771h0l-.455.28-.5-.095-.009,0-.271-.432c.108-.619.072-.5.152-.624v-.005C94.218,125.022,116.885,128.967,117.048,150.253Z"/><path class="a" d="M94.4,145.451a3.222,3.222,0,0,1,2.288.874,2.182,2.182,0,0,1,.735,1.128c0,.007-.094.454-.094.461-1.533.152-.652.107-1.537-.044a3.865,3.865,0,0,0-.472-.066l-.023-.006a3.627,3.627,0,0,0-1.622.012l-.028.013h0a2.08,2.08,0,0,0-.811.522c-.125.171-.245.2-.821.563-.108.086.039,0-.945.429-.434-1-.384-.864-.395-.971a2.215,2.215,0,0,1,.311-1.327,4.178,4.178,0,0,1,1.929-1.353l0,0A4.538,4.538,0,0,1,94.4,145.451Z"/><ellipse cx="94.449" cy="153.852" rx="2.301" ry="2.031" transform="translate(-63.37 241.513) rotate(-87.504)"/><path class="a" d="M94.465,171.448l-.555-.144h0c-.131-.086-.545-.285-.69-.352h0c-.086-.041-.9-.427-.993-.468h0a7.848,7.848,0,0,1-.7-.371h0a5.038,5.038,0,0,0-1.409-.54l0,0a2,2,0,0,0-.344-.029l-.014,0-.037,0-.014,0h-.009l-.014,0H89.66l-.01,0h-.009l-.009,0h-.009l-.01,0h0l-.01,0h0l0,0h-.009l-.005,0h0l0,0h0l0,0h0l0,0h0l-.005,0h0l-.005,0h0l0,0h0v0h0v0h0v0h-.005l0,0v0h0l0,0v0l0,.005h0l-.015.013v0l-.005.009,0,0,0,.009-.005,0a.7.7,0,0,0-.035.068h0l-.01.008-.02.027-.009.009-.01.018-.01.009v0l-.029.027-.01.018-.044.053h0a1.7,1.7,0,0,0-.191.268v0a3.014,3.014,0,0,0-.249.427l0,.013-.707.679c-.76-.791-.675-.58-.853-1.359h0a4.306,4.306,0,0,1-.025-.582h0a1.914,1.914,0,0,1,.136-.593,2.621,2.621,0,0,1,.965-1.105,2.8,2.8,0,0,1,1.68-.383,7.07,7.07,0,0,1,3.387,1.359h0a7.719,7.719,0,0,1,1.467,1.64l.174.542-.144.455v0h0Z"/><path class="a" d="M86.233,175.55c.3.255,1.109.819,1.219.887a10.079,10.079,0,0,0,5.563,2.076,10.423,10.423,0,0,0,3.006-.27c.774-.175,1.547-.61,2.107.493a45.41,45.41,0,0,1,2.2,6.08c.359,1.1.3.691.292,1.427l-.334.387-.01,0-.511.005c-.5-.434-.307-.08-1.437-2.246-.053-.088-1.292-2.616-1.879-3.929a12.055,12.055,0,0,1-2.589.325,12.316,12.316,0,0,1-7-2.015,7.3,7.3,0,0,1-2.181-2.173l0-.009a11.066,11.066,0,0,1-.753-1.332h0l-.064-.547.248-.408.01,0,.473-.076C85.443,174.688,84.578,174.141,86.233,175.55Z"/><path class="a" d="M89.311,178.821c-1.774-.639-4.126-1.327-4.618-3.14a39.871,39.871,0,0,1-.91-3.966,20.817,20.817,0,0,1-.18-5.278c.027-.193-.053-.684.113-.576,1.724,1.16.789,4.076,5.366,12.812"/><path class="a" d="M87.669,176.64a6.637,6.637,0,0,0,3.161.616c-.576-1.406-2.178-5.37-.674-5.148.481.077.842.571,1.093.942.658.973.9,2.44,1.827,3.217.826.7,2.933-.268,3.758-.6.544-.22,1.9-.5,2.088-1.194.2-.761-.448-1.762-.728-2.428-.609-1.446-1.255-2.9-1.94-4.319a7.148,7.148,0,0,0-1.5-2.382c-1.435-1.273-2.451-.519-3.388-1.143-.586-.4-.865-1.084-.03-1.421a4.121,4.121,0,0,1,2.3.027,6.387,6.387,0,0,1,2.111.719c1.926,1.182,2.9,3.5,4.764,6.436,1.391,2.243,1.341,4.137,4.671.453,4.876-5.355,2.979-7.508,4.523-12.764.1-.327.338-1.312.853-1.193.807.2,1.05,1.405,1.135,2.082a19.58,19.58,0,0,1-.125,6.574,13.6,13.6,0,0,1-2.378,5.508c-1.4,1.745-4.831,5.235-8.519,6.76-.811.334-3.654,1.606-4.32,1.775-5.1,1.312-9.409-.771-10.083-2.273-.126-.3.007-.59.361-.57a3.792,3.792,0,0,1,1.082.338"/><path class="b" d="M58.324,144.948c.436.47.3.087,1.076,2.47,6.194,20.978-4.254,35.91-2.29,67.25.73,9.658,2.477,17.846,7.515,26a41.412,41.412,0,0,0,15.554,14.269c.525.023,14.517,9.489,35.386,2.4v0l.538.028.365.389c0,.014-.027.524-.028.538l-.389.37a49.132,49.132,0,0,1-12.9,2.944,43.326,43.326,0,0,1-42.777-23.925c-6.884-13.861-6.529-34.019-4.479-49.346,1.265-10.793,5.113-26.357,2.683-37.884a38.22,38.22,0,0,0-1.194-4.65l0,0,.042-.528.388-.352Z"/><path class="b" d="M65.307,143.391l.427.359c1.279,1.746,1.477,3.075,2.04,5.83a29.284,29.284,0,0,1,.539,5.3,21.217,21.217,0,0,1-.365,3.182l-.265.49-.465.192h0l-.446-.231L66.546,158l-.005,0c-.057-.717-.394-3.1-.539-4.755l0,0c-.377-4.307-1.2-5.919-1.429-7.807-.005-.04-.124-1.162-.132-1.2,0-.008.092-.547.093-.554l.314-.332.01,0Z"/><path class="b" d="M73.377,142.6a2.311,2.311,0,0,1,.784.937,7.453,7.453,0,0,1,.739,1.53,29.413,29.413,0,0,1,.885,5.508,15.294,15.294,0,0,1-.328,5.09c-.088.475-.374,1.291-.379,1.4l-.324.456-.481.14h0l-.417-.281-.165-.537h0c0-1.243-.12-5.369-.144-5.908a29.564,29.564,0,0,0-.837-5.4c-.077-.444-.212-2.031-.208-2.106h0l.1-.553.314-.327.009,0Z"/><path class="b" d="M81.413,145.535c.359.517.363.237.889,3.6a75.521,75.521,0,0,1,.268,12.885,53.782,53.782,0,0,0,.423,10.366c2.392,13.8,12.473,28.92,18.2,45.038a1.6,1.6,0,0,1,.157,1.066l-.385.366h0v0l-.528-.027c-.494-.513-.217-.039-1.071-2.074-6.032-13.489-15.659-29.518-18.34-42.634-1.872-9.618.273-17.425-.528-26.8-.162-1.328-.17-.962-.012-1.618l.432-.289Z"/><path class="b" d="M107.437,207.979l.393.293c0,.007-.012.485-.013.493-1.32,1.7-4.031,2.531-7.066,4.3h0a4.878,4.878,0,0,1-1.877.692c-.212.058-.008.075-1.118-.155.229-1.112.164-.914.3-1.092A4.232,4.232,0,0,1,99.63,211.1c.005-.116,3.888-2.019,4.477-2.3a18.578,18.578,0,0,1,1.813-.594A3.066,3.066,0,0,1,107.437,207.979Z"/><path class="b" d="M16.158,165.036l.009,0,.342.388c-.03.878.109.09-.855,2.488-3.734,9.015-5.94,19.9-7.193,29.735C7.754,203.9,7.416,209.378,7.3,213.359A46.945,46.945,0,0,0,8.67,227.526a50.328,50.328,0,0,0,1.761,5.274,31.938,31.938,0,0,0,15.15,16.15,31.057,31.057,0,0,0,13.6,3.03,42.016,42.016,0,0,0,15.529-3.23c.938-.376,3.813-1.677,3.93-1.787l.536-.041c.008.006.407.338.413.345l.042.532c-.464.562.016.277-3.318,1.919a46.484,46.484,0,0,1-11.175,3.628,39.642,39.642,0,0,1-7.753.62c-.611,0-1.215-.058-1.614-.075a32.127,32.127,0,0,1-5.458-.874,31.7,31.7,0,0,1-5.247-1.832,32.44,32.44,0,0,1-10.1-7.356,32.047,32.047,0,0,1-6.123-8.993C4.32,224.718,4.7,216.075,5.486,205.028c1.235-14.416,3.136-26.633,9.754-39.663h0l.4-.347Z"/><path class="b" d="M37.977,170.138l.441.241.185.5c0,.15-.025,1.875.047,3.158h0c0,.709.1,2.276.117,2.594a87.943,87.943,0,0,0,1.182,11.584c1.1,7.326,4.58,17.41,7.353,24.214,2.491,6.114,2.165,4.737,2.212,5.69-.007.008-.333.4-.34.409s-.525.027-.531.027c-.55-.467-.3-.14-1.135-1.671-.581-1.117-2.277-4.271-3.656-7.54a95.184,95.184,0,0,1-6.5-23.053c-1.464-9.723-.17-14.6-.13-15.523l.264-.468.477-.163Z"/><path class="b" d="M53.4,207.236l.374.293c0,.007-.034.466-.034.473l-.376.481a10.245,10.245,0,0,1-2.3,1.448c-.115-.005-.832.393-3.2,1.261l0,0a2.036,2.036,0,0,1-.709.195c-.1.011-.444.018-.517.015-.659-.041-.346.051-1.413-.449.5-1.073.312-.779.8-1.246a2.626,2.626,0,0,1,1.046-.632c.206.009,3.74-1.634,5-1.759A3.112,3.112,0,0,1,53.4,207.236Z"/><ellipse cx="221.423" cy="143.258" rx="2.532" ry="2.762" transform="translate(-9.507 15.891) rotate(-4.024)"/><path class="b" d="M222.346,132.99l0,0a5.9,5.9,0,0,1,.816.4c.107.07.011-.017.455.467l.053.477,0,0v0l-.342.326-.57.09a4.237,4.237,0,0,0-.631-.023,8.1,8.1,0,0,0-1.44.186l-.006,0a4.938,4.938,0,0,0-1.464.407,5.768,5.768,0,0,0-1.681,1.161h0a2.767,2.767,0,0,1-.561.5h0a3.156,3.156,0,0,1-1.753.781l-.244-.95a4.835,4.835,0,0,1,.353-1.141h0a2.477,2.477,0,0,1,.625-.807h0a8.127,8.127,0,0,1,2.187-1.536,7.742,7.742,0,0,1,2.291-.669A4.787,4.787,0,0,1,222.346,132.99Z"/><path class="b" d="M220.861,159.744l.364.329.1.558a8.156,8.156,0,0,1-.648,2.293c-.058.108.141-.281-.272.541h0a11.59,11.59,0,0,1-4.206,3.9,7.477,7.477,0,0,1-1.812.768,5.164,5.164,0,0,1-1.564.034c-.377-.053-.139.075-1.049-.65.874-1.108.222-.485,1.921-1.478h0a10.158,10.158,0,0,0,2.567-1.4h0a12.324,12.324,0,0,0,2.325-2.392h0c.148-.172.6-.739.865-1.141v0a7.485,7.485,0,0,0,.526-.871v0l.391-.406.483-.076Z"/><path class="b" d="M101.909,35.64l.431.257c.309.917.084-.316.134,4.34.048,4.838.029,4.6-.252,5.033-.937.995-1.476-.2-3.717.507a3.991,3.991,0,0,0-1.928,1.32,3.466,3.466,0,0,0-.678,2.546l.009.025,0,.024c.007.022.028.107.048.164a2.39,2.39,0,0,0,1.067,1.2c1.486.867,4.194.391,5.05.62.939.42.629.938,1.028,2.548a7.515,7.515,0,0,0,2.528,4.353h0c1.7,1.348,1.681-.549,1.413,6.467-.063,1.958.005,1.525-.265,2.179l-.475.22H106.3c-.861-.363-.68.245-1.062-6.721-2-.93-3.706-2.912-4.444-6.5h0c-.04-.2-.054-.269-.072-.362a9.453,9.453,0,0,1-4.76-.817,4.867,4.867,0,0,1-1.92-1.94A4.118,4.118,0,0,1,93.61,49a6.139,6.139,0,0,1,6.625-5.709,47.078,47.078,0,0,1,.526-4.985c.406-2.418.328-1.986.658-2.519l.481-.146Z"/><path class="b" d="M122.457,36.394l.457.207.227.487c.022.671.486,4.635.54,6.859a7.765,7.765,0,0,1,3.5.788,4.761,4.761,0,0,1,2.372,4.247,5.653,5.653,0,0,1-.077.92c-.56,3.206-3.277,4.321-6.544,4.375-.2,0-.111-.066-.219.362a8.708,8.708,0,0,1-3.721,5.562c-.157.1-.05-.26-.257,2.734-.208,3.019-.033,2.259-.352,3l-.475.217h-.009l-.48-.2c-.324-.7-.2-.19-.317-2.139-.156-4.9-.1-3.591-.127-3.955a1.01,1.01,0,0,1,.364-.943h0a6.307,6.307,0,0,0,2.041-2.006c.009-.017.075-.127.094-.153a9.6,9.6,0,0,0,.958-2.3c.381-1.283.094-1.671.742-2.227.588-.359.9-.121,2.516-.24a4.5,4.5,0,0,0,2.836-1,2.976,2.976,0,0,0,.463-3.326c-.615-1.229-2-1.407-3.392-1.458-1.017-.033-1.644.155-2.073-.74a2.591,2.591,0,0,1-.082-.877,61.9,61.9,0,0,1,.318-7.509l.233-.484.46-.2Z"/><path class="b" d="M114.105,52.345c-.069,1.037,0,.959-.276,1.362a2.779,2.779,0,0,1-1.109,1.036,3.8,3.8,0,0,1-3.395-.236c-.383-.214-.4-.218-.675-.7h0c-.1-.215-.153-.4-.157-.4l-.1-.974c2.071-.211,1.675.012,2.411.27.691.225.906-.058,1.463-.153C113.491,52.256,112.572,52.287,114.105,52.345Z"/><path class="b" d="M111.943,42.205c.535,1.406.345.683.265,4.068a10.858,10.858,0,0,1-.332,3.182,2.024,2.024,0,0,1-.338.889l-.4.234h-.009l-.429-.2-.3-.5,0,0c-.621-2.059-.506-2.569-.374-5.584a3.074,3.074,0,0,1,.293-1.666c.294-.613.1-.368.963-1.153C111.29,41.489,111.93,42.188,111.943,42.205Z"/><ellipse cx="106.478" cy="42.878" rx="1.841" ry="1.381" transform="translate(59.005 147.387) rotate(-87.504)"/><ellipse cx="116.135" cy="43.298" rx="1.841" ry="1.381" transform="translate(67.821 157.438) rotate(-87.504)"/><path class="c" d="M123.213,155.442c4.591-1.059,12.521-7.383,11.47,4.278-.621,6.829-2.574,14.636.048,21.311"/><path class="a" d="M105.941,59.32a9.234,9.234,0,0,1,1.082.135,6.767,6.767,0,0,0,2.222.584c.669.064,1,.022,1.395.072,1.929.239,1.426.145,2.117.373l.292.358c0,.011-.128.444-.131.455l-.451.381h0a5.134,5.134,0,0,1-2.573.659,10.245,10.245,0,0,1-3.147-.557,2.311,2.311,0,0,1-1.409-1c-.286-.447-.179-.114-.374-1.3C106.282,59.262,105.831,59.313,105.941,59.32Z"/><path class="a" d="M101.332,44.964a9.919,9.919,0,0,1-.792-10.242c-3.358-.766-6.305-3.972-7.241-7.246,6.7,3.965,19.271-6.947,27.468-2.408,3.253,1.8,4.606,5.851,3.949,9.4,4.746,2.224,3.272,6.544.839,11.185a8.464,8.464,0,0,0-2.961-.446c-.219-3.427.188-6.862-.081-10.292a28.106,28.106,0,0,1-5.572.988c-4.266.5-9.009.667-13.188-.488a19.165,19.165,0,0,0-2.267,9.948"/><path class="a" d="M93.966,26.557c5.534,2.858,14.513-4.237,22.953-3.68,5.864.378,9.054,4.627,9.087,9.911.006,1.748-.445.469,1.155,1.93,2.9,2.922,1.849,6.406.079,10.126-.606,1.182-.792,2.057-1.917,1.914a7.084,7.084,0,0,0-2.751-.421c-1.226-.127-1.114-1.153-1.156-2.222-.074-1.829.119-5.968.058-7.775a26.416,26.416,0,0,1-2.649.419c-10.092,1.2-13.964-.21-14.282-.224-.21-.051-.337-.084-.338-.084a21.86,21.86,0,0,0-1.038,2.48,17.4,17.4,0,0,0-1,5.46c-.045,1.041.153.561-.154,1.434l-.472.243h-.009l-.5-.171-.246-.478,0,0,0-.052-.032-.021A11.391,11.391,0,0,1,98.6,38.113a10.125,10.125,0,0,1,.585-2.748,11.17,11.17,0,0,1-5.063-3.831,11.513,11.513,0,0,1-1.776-3.318,1.783,1.783,0,0,1-.146-1,1.13,1.13,0,0,1,1.121-.873A1.225,1.225,0,0,1,93.966,26.557Zm7.505,7.834a.95.95,0,0,1,0,.645,8.717,8.717,0,0,0-.695,7.078c.065.2.011.174.087-.319a21.173,21.173,0,0,1,1.423-5.266c.687-1.588.716-1.778,1.247-1.963.107,0-.053-.026.3-.023a24.613,24.613,0,0,0,5.271.743,58.839,58.839,0,0,0,11.316-.957,19.476,19.476,0,0,0,1.92-.5,1.1,1.1,0,0,1,1.183.655c.371,1.121.087,6.443.146,9.643a9.368,9.368,0,0,1,1.31.183c.113-.208.341-.693.45-.911a12.867,12.867,0,0,0,1.064-2.861c.584-2.609-.149-3.772-1.628-4.716-.708-.408-.713-.288-1.058-.676-.587-.929.253-.847-.217-4.1a7.242,7.242,0,0,0-3-4.756c-6.783-4.289-17.754,4.29-25.227,3.106a9.786,9.786,0,0,0,4.657,4.135C100.842,33.849,101.171,33.723,101.471,34.391Z"/><path class="d" d="M144.393,81.85S134.61,91.5,113.649,94.315c-8.532,1.145-17.241-1.466-24.891-5.242-3.685-1.821-8.123-4.016-10.76-7.24.844-2.567,3.324-4.918,5.359-6.586C88.3,71.2,94.523,67.9,100.964,67.175a8.96,8.96,0,0,0,4.7,4.091c5.948,2.645,12.289.611,16.074-4.528C130.532,67.747,140.334,74.66,144.393,81.85Z"/><path class="d" d="M139.3,86.61a60.073,60.073,0,0,1-18.492,7.562c-11,2.508-19.937,2.682-35.627-5.643A26.669,26.669,0,0,1,77.4,82.873a1.472,1.472,0,0,1-.526-1.023,6.934,6.934,0,0,1,1-2.37,14.988,14.988,0,0,1,1.41-1.911,38.242,38.242,0,0,1,8.329-6.726,33.072,33.072,0,0,1,12.909-4.752,1.256,1.256,0,0,1,1.281.326,6.61,6.61,0,0,0,2.418,2.768c4.65,3.132,11.206,3.159,16.122-2.351v0c.971-1.16.769-1.246,2.374-.988,8.109,1.341,17.466,7.418,22.243,15.572a.728.728,0,0,1-.078.941l-.009-.009A36.784,36.784,0,0,1,139.3,86.61ZM120.884,69.316a13.978,13.978,0,0,1-11.422,4.145c-4.261-.479-7.9-2.9-9.132-5.066A32.269,32.269,0,0,0,87.275,73.74a33.063,33.063,0,0,0-6.446,5.5A10.3,10.3,0,0,0,79.3,81.607a18.552,18.552,0,0,0,3.437,2.868,75.294,75.294,0,0,0,11.782,5.9c8.035,3.078,14.076,3.5,19.465,2.753,9.3-1.319,19.555-4.438,27.476-9.876a24.585,24.585,0,0,0,2.034-1.542c-4.335-6.771-13.151-12.749-21.289-13.883A16.416,16.416,0,0,1,120.884,69.316Z"/><path class="a" d="M128.738,15.229c9.92.79,28.3,3.194,37.746,7.88a30.289,30.289,0,0,1,12.95,11.642,23.647,23.647,0,0,1,2.48,6.2c1.9,8.2-.785,15.912-5.881,22.69a96.1,96.1,0,0,1-10.082,10.8,144.935,144.935,0,0,1-16.367,13.041c-6.776,4.652-6.649,3.967-5.169,3.9a23.04,23.04,0,0,1,8.732,1.247c4.015,1.368,5.35,5.185,3.8,8.321-4.045,8.18-23.452,6.339-26.821-.494a5.01,5.01,0,0,1-.455-1.312c-14.21,1.268-32.166,4.706-55.817-8.147-6.108-3.357-11.528-6.954-15.52-12.625a37.984,37.984,0,0,1-3.869-6.7A37.384,37.384,0,0,1,52.9,45.171C61.716,17.432,99.811,12.866,128.738,15.229Zm10.919,77.285c.162-.707-.021-.263,3.308-2.413,11.462-7.276,30.306-22.218,35.417-34.067a23.831,23.831,0,0,0,2.142-9.717,21.881,21.881,0,0,0-6.9-15.619c-4.478-4.24-8.825-6.311-14.721-8.121-6.768-2.039-16.424-3.547-22.907-4.342-21.65-2.608-52.561-2.146-69.589,11.523A33.683,33.683,0,0,0,54.356,64.311C56.994,74.869,62.508,81.385,70.6,86.473c17.3,10.753,32.307,12.939,50.946,11.254,9.311-.868,9.389-1.172,10.033-.386a1.063,1.063,0,0,1,.188.763l-.007.161,0,.023c-.217,4.969,16.489,9.29,22.774,3.065,2.26-2.65,1.375-5.6-1.107-6.851a22.959,22.959,0,0,0-6.05-1.569,28.737,28.737,0,0,0-6.918.273l0,.012A.709.709,0,0,1,139.657,92.514Z"/><path class="d" d="M152.77,183.937c-4.022-3.166-9.289-4.943-14.2-6.06-6.222-1.419-18.734-.411-18.849-.3-4.82,4.554-9.252,9.415-15.028,12.872-2.309,1.383-7.479,2.236-6.221-2.1a14.757,14.757,0,0,0-5.417,3.684c2.5,5.537,4.636,10.007,7.156,15.517,2.617-1.066,4.4-1.407,7.018-2.459,7.923,5.335,13.279,15.207,16.18,24.124,1.129-1.909,2.274-3.863,3.551-5.678-1.477-4.169-3.31-12.538,3.46-12.9-.35-5.189,1.265-11.039,7.574-10.341-.23-2.654-.224-5.653,1.3-7.973,1.925-2.93,6.025-1.558,7.934.525C148.855,189.949,152.77,183.937,152.77,183.937Z"/><path class="d" d="M149.67,190.275c-1.948,3.209-1.764,3.415-2.552,3.381-.421-.1-.447-.242-.65-.42a6.554,6.554,0,0,0-2.606-1.519,4.208,4.208,0,0,0-2.082-.132l-.023.008-.028,0a2.6,2.6,0,0,0-1.083.538l-.015.017h0a7.33,7.33,0,0,0-1.76,4.747c-.135,3.106.318,3.193-.046,3.915a.992.992,0,0,1-1,.444,5.823,5.823,0,0,0-3.3.548,5.653,5.653,0,0,0-2.559,3.519,11.055,11.055,0,0,0-.364,1.689c-.453,3.559.366,3.838-.627,4.557h0c-.987.455-5.157-.382-4.107,7.036h0a26.292,26.292,0,0,0,1.165,4.552c.252,1.006-.163.659-3.22,5.913-.439.742-.565,1.168-1.336,1.269a1.128,1.128,0,0,1-1.132-.777,59.37,59.37,0,0,0-5.969-12.958,35.257,35.257,0,0,0-9.288-10.246c-.86.27,1.03-.292-3.433,1.163-1.9.6-2.87,1.028-3.2,1.128a1.125,1.125,0,0,1-1.263-.631c-4.907-10.773-7.252-15.306-7.256-16.092a1.089,1.089,0,0,1,.321-.686,14.689,14.689,0,0,1,4.093-3.121,13.2,13.2,0,0,1,2.016-.893,1.134,1.134,0,0,1,1.167.71c.156.531.044.559-.075,1.18a1.626,1.626,0,0,0-.035.607l0,.019v.018a.5.5,0,0,0,.015.065v.019a1.226,1.226,0,0,0,.04.121v.009l.009.01.008.019v.009a.376.376,0,0,1,.026.038l0,.009,0,0,0,.01,0,0,0,.01.027.029.009,0,0,.009,0,0,.009,0,0,.009.009.005,0,0,.009,0,.013.014.009,0,.009.01.027.015.009.009c.021.012.01,0,.031.016l.009.009.05.021.013.01.054.02.014.01c.042.017.161.052.2.065h.023c.042.012.017,0,.059.016h.023l.041.011h.023l.023.006c2.676.116,4.226-1.065,6.4-2.592,5.887-4.34,11.458-10.5,12.514-11.231,1.02-.441,13.032-1.046,18.987.215,5.052,1.118,11.066,3.284,15.041,6.594l.01-.009C153.878,184,153.517,183.939,149.67,190.275Zm-2.622,1.282v0c.4-.742,4.583-7.243,4.771-7.458-3.656-2.676-9.024-4.382-13.463-5.291-3.136-.772-10.008-.617-13.229-.494-.906.049-3.992.212-4.888.322-6.566,6.324-8.171,8.091-13.059,11.561a12.326,12.326,0,0,1-5.084,2.373c-1.315.233-3.031.189-4-.736a2.814,2.814,0,0,1-.888-1.615,12.318,12.318,0,0,0-2.8,2.057c1.536,3.438,5.774,12.46,6.386,13.829,1.01-.4,4.337-1.4,5.322-1.8,1.368-.5,1.148-.616,2.888.656A37.4,37.4,0,0,1,117.9,214.8a61.56,61.56,0,0,1,5.786,11.748c.067-.108,1.344-2.216,2.023-3.183-1.17-3.645-2.239-8.807.224-11.8a5.556,5.556,0,0,1,3.377-1.885,12.581,12.581,0,0,1,2.2-7.948,6.552,6.552,0,0,1,1.468-1.346,6.94,6.94,0,0,1,3.979-1.121c-.154-3.131.451-7.386,3.153-8.912C141.725,189.432,144.388,189.478,147.048,191.557Z"/><path class="d" d="M131.152,282.619a25.544,25.544,0,0,1-10.9-24.438c-8.494,4.808-17.42,7.281-27.115,4.992,1.5,6.649,3.033,13.3,4.493,19.952,3.781-.133,22.422-.355,33.859-.293"/><path class="d" d="M120.444,257.065a1.139,1.139,0,0,1,.939,1.078c-.015.211-.091.818-.1.926a23.741,23.741,0,0,0,.63,8.468,25.792,25.792,0,0,0,4.61,9.664l.009,0a29,29,0,0,0,5.1,4.982l.371.154c.67,1.581.732,1.141-13.723,1.429-14.958.436-4.619.037-20.606.48a1.124,1.124,0,0,1-1.141-.884c-4.771-21.454-4.593-19.888-4.474-20.513a1.137,1.137,0,0,1,1.155-.807,31.448,31.448,0,0,0,11.035.624,38.135,38.135,0,0,0,11.714-3.535C119.848,257.31,119.582,257.007,120.444,257.065Zm-23.721,7.881c-.109-.013-1.989-.252-2.1-.312.774,3.4,3.165,13.934,3.907,17.333.868-.251,25.844.031,30.574.107-.118-.066-.994-.763-1.527-1.223a24.143,24.143,0,0,1-2.471-2.49,25.579,25.579,0,0,1-6.184-18.174C111.987,263.789,104.512,265.913,96.723,264.946Z"/><path class="a" d="M203.854,177.018a9.353,9.353,0,0,0,1.595.935l.631.323v0a10.209,10.209,0,0,0,3.4,1.259,13.186,13.186,0,0,0,3.47.179,21.565,21.565,0,0,0,4.054-.727,7.129,7.129,0,0,0,1.366-.558l.543-.1.44.245.005,0,.1.5-.261.487h0a9.441,9.441,0,0,1-1.47,1.055,10.648,10.648,0,0,1-4.176,1.306,15.264,15.264,0,0,1-6.279-.637,11.745,11.745,0,0,1-2.354-1.084h0l-.362-.26a7.943,7.943,0,0,1-1.714-2h0l-.134-.535.176-.439,0,0,.448-.132Z"/><path class="a" d="M206.6,178.967c.339.646.207.152.481,1.859a26.774,26.774,0,0,1,.185,5.79,1.364,1.364,0,0,1-.163.776c-.5.718-.954.53-2.2.586a87.719,87.719,0,0,0-10.7,1.216c-1.692.307-1,.315-1.87.2l-.348-.375c0-.014.053-.5.055-.518l.4-.374v0a26.219,26.219,0,0,1,9.123-2.211c3.752-.3,3.451-.115,3.457-.264,0-.2.013-1.053.015-1.6h0a16.957,16.957,0,0,1,.214-3.22c.007-.049.21-1.332.212-1.373h0l.252-.487.433-.206h0Z"/><path class="a" d="M240.45,138.335l0,0a13.02,13.02,0,0,1,1.235.74c5.081,3.712,4.762,9.907-.366,13.484a14.651,14.651,0,0,1-5,2.233,37.318,37.318,0,0,1-1.835,11.95,27.927,27.927,0,0,1-4.522,8.622c.01.126.075,5.294.365,9.806A89.22,89.22,0,0,1,241.264,189c1.169.551.872.349,1.34.865l-.014.529-.393.361c-.108,0-.651-.01-.543-.01a90.6,90.6,0,0,0-12.2-3.683,1.353,1.353,0,0,1-.57-.149h0c-.544-.349-.539-.722-.6-1.381-.234-2.195-.468-5.314-.568-9.571.017-1.765-.011-1.281.878-2.5l.378-.527a25.528,25.528,0,0,0,2.477-4.508,34.227,34.227,0,0,0,2.6-14.525,1.128,1.128,0,0,1,.795-1.117,12.674,12.674,0,0,0,2.413-.609c3.243-1.339,5.984-3.486,5.8-6.976,0-.032-.014-.155-.016-.162a6.028,6.028,0,0,0-1.043-2.814h0a7.679,7.679,0,0,0-2.43-2.286,8.024,8.024,0,0,0-4.093-1.228l-.493-.2-.219-.465v0l.187-.48c.558-.27.4-.239.872-.252A9.825,9.825,0,0,1,240.45,138.335Z"/><path class="a" d="M195.3,120.575c2.905,1.522,5.691,3.255,8.924,4.023,7.21,1.71,15.577-1.165,20.961-6.08.784,8.032,2.379,17.09,11.056,19.27.573-4.988-.021-10.92-2.241-15.489-2.538-5.208-8.027-9.055-13.606-10.343a25.719,25.719,0,0,0-14.364.7c-1.9.719-3.584,1.992-5.557,2.538-.82.227-1.993-.148-1.864-1.206a4.8,4.8,0,0,1,1.646-2.983,23.336,23.336,0,0,1,9.4-4.2c5.016-.927,12.874.075,17.394,2.6A28.2,28.2,0,0,1,237.6,120.928c2.069.1,3.293.455,5.042-.995,2.094-1.737,1.03-5.4-6.332-6.3a16.093,16.093,0,0,0,3.907-1.808,7.587,7.587,0,0,0,3.085-2.814c1.318-2.641-.529-5.186-3.327-5.484-2.94-.313-6.195,1.868-8.181,3.873,1.449-2.27,3.281-4.346,4.095-6.963,1.048-3.352-.395-5.618-3.73-3.938-2.657,1.337-4.354,4.331-5.964,6.707a22.742,22.742,0,0,0,2.22-5.589c.614-2.994.08-9.226-4.646-7.781-4.005,1.226-6.209,5.831-7.486,9.8.329-3.023,1.581-10.194.149-13.136a2.879,2.879,0,0,0-4.639-.975,7.312,7.312,0,0,0-1.276,1.491c-2.451,3.7-2.474,8.349-2.8,12.615-.7-3-1.633-6.4-3.961-8.6-3.562-3.358-6.522,1.241-6.754,4.657-.225,3.359,1.076,6.395,2.138,9.495-1.914-2.8-3.31-6.935-6.256-8.888-3.085-2.046-5.545,1.014-5.52,4.137.03,3.645,2.777,7.32,4.749,10.269-2.337-2.18-5.359-5.261-8.852-5.143-2.426.082-4.964,5.4-.235,10.558,3.242,3.543,7.648,3.6,12.018,3.989"/><path class="a" d="M236.668,96.029c1.382,2.07.46,4.932-.72,7.116.031-.012.136-.057.173-.073,7.857-3.067,11.623,4.97,6.148,8.749-.472.358-1.739,1.155-2.266,1.454a11.278,11.278,0,0,1,1.953.849c3,1.638,4.019,5.013.748,7.168-1.583,1.016-2.783.918-4.615.8-.7-.045-.7-.017-1.043-.177-.694-.458-.133-.339-2.019-3.248a28.534,28.534,0,0,0-7.437-7.6c-5.347-3.453-14.354-4.186-19.131-2.825a23.033,23.033,0,0,0-6.769,3.1,4.438,4.438,0,0,0-1.422,1.342,3.7,3.7,0,0,0-.536,1.4l0,0a.733.733,0,0,0,.335.037,21.89,21.89,0,0,0,3.967-1.809c9.234-4.623,24.759-2.313,30.845,9.228a23.91,23.91,0,0,1,2.157,6.639,33.22,33.22,0,0,1,.363,9.12c-.081.677-.046.754-.266,1.131a1.121,1.121,0,0,1-1.275.4,13.964,13.964,0,0,1-2.336-.834c-5.829-2.808-7.677-8.35-8.756-14.748-.089-.6-.306-2.116-.366-2.831a26.424,26.424,0,0,1-15.489,5.495c-7.016.044-11.081-3.416-13.943-4.727-.565-.69.28-.227-3.784-.7-4.516-.512-7.761-1.907-10.212-5.783a11.042,11.042,0,0,1-.789-1.557,8.136,8.136,0,0,1-.623-3.456c.1-2.276,1.409-4.9,3.759-4.959a8.738,8.738,0,0,1,4.911,1.591h0c-1.24-2.365-2.207-4.832-1.642-7.459.822-3.032,2.628-4.189,4.352-4.183,2.119.022,3.775,1.726,5.086,3.386-.047-.164-.091-1.229-.1-1.337-.071-5.723,4.194-10.119,8.22-6.778a11.844,11.844,0,0,1,2.921,4.017,17.117,17.117,0,0,1,2.819-8.018c1.367-1.942,3.429-2.928,5.577-1.958,3.06,1.55,2.832,5.534,2.682,8.963a14.243,14.243,0,0,1,1.006-1.3c3.635-3.922,8.458-4.521,10.03.114a12.293,12.293,0,0,1,.488,5.082,8.579,8.579,0,0,1,2.985-1.774C234.641,94.457,235.986,95.018,236.668,96.029Zm-22.521,9.313c4.437.068,9.868,1.022,13.655,3.2a29.541,29.541,0,0,1,8.359,7.8,25.27,25.27,0,0,1,2.169,3.5,8.927,8.927,0,0,0,2.092,0,3.409,3.409,0,0,0,1.862-1.179l.015-.017.019-.034.006-.017.029-.05.006-.016.01-.016,0-.016.01-.017c.021-.066.034-.1.048-.144v-.016l.011-.031v-.017l.005-.015v-.033l.006-.016.007-.165,0-.017v-.035l0-.017v-.017l0-.018v-.018c-.012-.061-.02-.1-.034-.165l-.008-.019,0-.019h0l0-.019-.008-.02,0-.019-.033-.079c-.027-.148-.374-1.029-2.242-1.852a14.622,14.622,0,0,0-3.759-.951,1.174,1.174,0,0,1-1.072-.672,1.124,1.124,0,0,1,.35-1.374c.351-.221.864-.3,1.988-.792,1.144-.5,3.827-2.017,4.465-3.083a2.561,2.561,0,0,0-1.464-4.042,6.09,6.09,0,0,0-4.567.779,14.819,14.819,0,0,0-3.464,2.605,1.125,1.125,0,0,1-.687.327,1.151,1.151,0,0,1-.742-.186,1.126,1.126,0,0,1-.41-1.376c.864-1.648,5-6.219,4.257-9.2L235,97.743a.539.539,0,0,0-.012-.053l-.008-.017,0-.017-.009-.017,0-.017-.009-.017,0-.016c-.142-.275-.161-.3-.166-.308l-.009-.009,0-.009-.009-.007,0-.008-.009-.007,0-.007-.009-.007-.005-.006-.009-.006,0-.006-.009-.005,0-.006-.009,0,0,0-.009,0,0-.005-.009,0,0-.005-.018-.009,0,0-.036-.016,0,0a1.059,1.059,0,0,0-.421-.066,5.511,5.511,0,0,0-3.142,1.589c-3.745,3.742-3.479,6.109-5.248,5.606a1.13,1.13,0,0,1-.722-1.2c.164-.744,2.064-3.676,2.353-6.408.178-1.7.044-4.472-1.287-5.564-1.1-.87-3.078.129-4.148.981-2.015,1.486-3.45,4.533-4.286,6.9-.434,1.209-.37,1.387-.987,1.715a1.144,1.144,0,0,1-.766.036c-1.755-.711.047-2.612.014-10.69-.006-1.388-.238-3.418-1.5-4.015a1.587,1.587,0,0,0-.935-.124,3.181,3.181,0,0,0-1.86,1.444c-2.368,3.506-2.5,7.251-2.812,11.777-.048.721-.027.988-.466,1.394a1.108,1.108,0,0,1-1.368-.007c-.7-.667-.269-1.283-1.7-5.052-.059-.127-.254-.636-.432-.964-.632-1.342-2.139-3.512-3.633-3.546a2.632,2.632,0,0,0-1.96,1.3c-2.605,3.815-.71,8.1.738,12.474a1.031,1.031,0,0,1-.243,1.237,1.012,1.012,0,0,1-1.265.052c-1.321-1.16-3.758-8.284-6.976-9.293a1.866,1.866,0,0,0-1.776.27c-4.7,4.269,3.027,12.4,3.206,13.659a.881.881,0,0,1-1.232.879c-.918-.491-4.474-5.1-8.332-5.124a1.273,1.273,0,0,0-.783.2c-2.533,1.941-1.662,6.965,1.668,9.721,2.72,2.521,6.775,2.735,10.381,3.053.518.047.319-.011.89.289l.11.338c3.775,2.018,6.929,3.81,10.764,4.18a22.582,22.582,0,0,0,11.352-1.989,25.052,25.052,0,0,0,6.724-4.383.964.964,0,0,1,1.21-.071c.7.591.166.69,1.086,5.756a27.515,27.515,0,0,0,2.023,6.74c1.544,3.018,3.172,4.868,6.406,6.108h0a30.73,30.73,0,0,0-1.116-10.544,17.659,17.659,0,0,0-2.244-4.864c-3.891-5.572-10.81-9.11-19.585-8.47-6.082.466-7.688,2.409-10.724,3.556a3.444,3.444,0,0,1-2.8.122,2.419,2.419,0,0,1-.769-.548,2.138,2.138,0,0,1-.544-1.246,5.007,5.007,0,0,1,.676-2.519,7.113,7.113,0,0,1,2.947-2.8,26.01,26.01,0,0,1,6.278-2.824A21.694,21.694,0,0,1,214.147,105.342Z"/><path class="d" d="M184.779,186.852c.31.646.2.211.348,1.651a81.954,81.954,0,0,1,.451,9.3c.243,12.172.338,11.233.427,19.816-.1,8.245,0,7.375-.8,7.779H185.2l-.484-.21c-.295-.667-.214-.288-.332-1.7-.727-8.723-.644-9.9-.814-15.138-.355-15-.375-14.721-.209-17.512.082-1.39.258-3.392.272-3.5h0l.229-.488.456-.206h.009Z"/><path class="d" d="M249.554,184l.451.222.213.489c.482,4.713.313,23.787.282,24.832a93.513,93.513,0,0,1-1.115,13.847c-.263,1.813-.219,1.5-.531,2.036l-.5.153h-.009c-.909-.543-.528.238-.307-7.33.6-21.7-.209-23.765.69-32.64.137-1.155.041-.8.352-1.418l.464-.192Z"/><path class="a" d="M217.34,218.03c.628,1.2.368.468.625,3.524a6.123,6.123,0,0,1-.235,2.865h0l-.278.555-.384.241h-.009c-.511-.261-.34-.1-.733-.728l0,0a6.875,6.875,0,0,1-.561-2.144c-.012-.131-.252-2.971-.195-3.344a2.743,2.743,0,0,1,.23-.644c.2-.417.013-.168.832-1.014C216.643,217.35,217.327,218.015,217.34,218.03Z"/><path class="a" d="M130.159,213.613c2.445,2.668.338.326,4.129,5.257,5.84,6.735,5.526,6.022,5.248,6.974l0,0-.464.2-.551-.162c.437,0-2.5-.8-7.233-7.194a16.117,16.117,0,0,1-1.748-2.707,12.133,12.133,0,0,1-.585-1.694c.031-.708-.1-.4.267-.942l.009,0,.457-.021Z"/><path class="a" d="M135.125,205.274a19.118,19.118,0,0,1,1.6,2.083c2.931,5.277,3.492,5.82,4.636,7.707,2.039,3.673,1.689,2.808,1.859,3.643l-.231.446,0,0-.493.1-.505-.261h0c-.437-.451-1.514-1.548-2.115-2.326a72.738,72.738,0,0,1-5.154-8.288,15.8,15.8,0,0,1-.814-2.468c.03-.689-.072-.445.294-.932l0,0,.461-.008Z"/><path class="a" d="M148.107,208.908l-.52-.235h0a22.687,22.687,0,0,1-2.374-2.416,29.97,29.97,0,0,1-3.544-6.107,7.245,7.245,0,0,1-.8-3.61c0-.289-.034-.116.166-.758l.354-.288h.009l.442.107c.439.478.368.381.476.6.07.134.867,1.572.939,1.819,1.561,4.138,2.568,4.908,4.862,8.856.671,1.123.5.686.688,1.444l-.209.456h0l0,.005Z"/><path class="a" d="M157.672,195.8l.009,0,.343.374c.02,2.435-6.75,15.142-5.953,34.876.064,3.041.472,7.477.613,9.209,1.26,12.081,1.723,11.313,1.458,12.536-.009,0-.43.3-.437.3s-.509-.108-.516-.11l-.313-.446a121.183,121.183,0,0,1-2.764-16.062,97.625,97.625,0,0,1,.266-18.69c.29-2.77,1.1-6.721,1.118-6.83a52.343,52.343,0,0,1,4.222-12.726c1.142-2.388.993-2.047,1.447-2.443Z"/><path class="a" d="M128.027,228.817l.357.37c.029,1.728-.3-.512-1.877,8.165-1.359,7.408-5,18.224-2.393,29.332a23.132,23.132,0,0,0,4.249,9.064,19.114,19.114,0,0,0,8.135,5.966,19.88,19.88,0,0,0,8.809,1.264,24.8,24.8,0,0,0,6.824-1.8c6.381-2.591,10.368-8.361,13.671-14.3,3.4-6.239,2.437-5.134,3.235-5.84l.529.019.361.4c-.031.7.048.365-.381,1.337-2.162,4.828-5.25,11.181-9.017,15.014a23.55,23.55,0,0,1-18.381,7.456A21.877,21.877,0,0,1,122.89,270.45a37.924,37.924,0,0,1-1.8-15.725c.925-9.445,2.045-11.353,3.144-16.007.271-1.036,1.44-6.67,2.881-9.536v0l.385-.366h.516Z"/><path class="a" d="M179.332,191.443l.247.463v0l-.168.5c-.529.289-.411.254-.723.3-4.271.609-8.965,3.721-12.385,6.362h0c-5.9,4.546-9.485,9.6-13.8,15.505-.008.007-.439.307-.447.313l-.5-.045-.009-.005-.3-.4c.044-.647.017-.5.114-.718a33.846,33.846,0,0,1,6.445-9.722,52.9,52.9,0,0,1,9.193-8.261,26.041,26.041,0,0,1,6.222-3.341c.107-.036,1.775-.607,1.934-.607a17.417,17.417,0,0,1,3.658-.518Z"/><path class="a" d="M253.5,193.068c6.664,1.812,13.812,4.657,19.207,9.121,4.506,3.634,7.63,7.458,10.842,14.659,6.345,13.516,8.66,27.314,9.758,42.2.185,3.251.851,6.8,1.417,11.672a37.534,37.534,0,0,1,.194,6.965l-.242.483-.5.181h-.01l-.473-.237-.185-.5c.206-4.741-1.109-10.25-1.69-14.076-1.04-6.325-1.136-14.328-3.7-25.865a90.35,90.35,0,0,0-5-16.247c-1.87-4.357-4.458-10.036-7.679-13.553a33.614,33.614,0,0,0-2.912-2.873c-5.074-4.567-12.572-8.209-19.441-10.6h0l-.4-.349c0-.015-.052-.509-.051-.523l.335-.391Z"/><path class="a" d="M264.271,283.141c-.444-.512-.327-.243-1.114-2.035-.5-1.154-.342-.688-2.05-6.567h0a5.545,5.545,0,0,1-.243-2.448l.479-.854.855.479a10.859,10.859,0,0,1,.877,1.536c.059.155,1.66,5.583,1.813,6.294.08.351.245,1.552.257,1.725.112,1.3.133.878-.022,1.644l-.364.33C264.745,283.244,264.284,283.144,264.271,283.141Z"/><path class="d" d="M174.548,282.285c-2.156-18.3-5.984-37.332,2.837-54.515,8.884-2.05,62.708-2.28,80.2-.8,6.137,18.715,1.966,37.769-1.657,56.519"/><path class="d" d="M256.6,225.763c1.278.082,1.283.089,1.606.268.468.362.45.606.737,1.483,5.607,18.347,1.642,36.4-2.145,55.232-.218,1.059-.1.764-.482,1.333l-.521.111h-.009l-.443-.3c-.156-.748-.176-.181.215-2.295,3.253-17.865,2.739-16.766,2.846-16.766,1.836-13.427,2.082-24.176-1.663-36.793-.012,0-.561-.044-4.209-.266-16.316-.712-32.777-.739-48.242-.458-3.405.063-22.9.519-26.141,1.454a49.575,49.575,0,0,0-4.743,16.551c-1.755,15.99,2.324,35.251,1.683,37.4l-.454.261h-.005l-.5-.146-.266-.459h0c-2.59-18.606-6.484-37.812,2.31-54.7.538-1.1.585-.987,3.24-1.384C195.558,224.451,242.651,224.583,256.6,225.763Z"/><path class="e" d="M121.313,112.561c.113.074.009.077.547-.08,3.867.329,8.075,5.251,7.12,8.943l-.012.06,0,0c-1.375,5.313-8.66,3.652-11.526-1.078h0a7.168,7.168,0,0,1-1.09-3,4.513,4.513,0,0,1,.282-2.253A3.987,3.987,0,0,1,121.313,112.561Zm-.171,1.373a2.524,2.524,0,0,0-1.177.255,2.7,2.7,0,0,0-1.352,2.173.709.709,0,0,1-.015.129c-.258,1.679,1.334,4.609,4.672,5.8a3.862,3.862,0,0,0,2.029.19,2.109,2.109,0,0,0,1.482-1.562h0a3.106,3.106,0,0,0-.115-1.809,9.221,9.221,0,0,0-.9-1.919,7,7,0,0,0-4.229-3.394Z"/><path class="e" d="M131.828,106.817c1.975.042,4.043,2.381,3.936,4.828-.129,2.967-4.094,4.7-6.643.932a3.58,3.58,0,0,1-.262-3.706,3.019,3.019,0,0,1,.422-.593c.845-.787.587-.369.789-.774A2.461,2.461,0,0,1,131.828,106.817Zm-.7,1.707-.067.147v0a1.715,1.715,0,0,0-.377.713v.023l-.01.022a1.456,1.456,0,0,0-.038.235l-.005.021,0,.105,0,.021,0,.062,0,.021v.021l0,.02v.021l0,.02V110l0,.021v.021l0,.02v.021l.012.061v.021a.443.443,0,0,0,.011.055v.007l.007.042v.021c.013.072.018.1.038.184v.006c0,.027.018.1.022.131l.008.022.007.044.009.022,0,.023.009.022,0,.022.009.023,0,.022c.435,1.185,1.268,1.685,1.826,1.653a1.167,1.167,0,0,0,.619-.249l.048-.042,0-.009a.678.678,0,0,0,.063-.071l0-.01.01-.009.01-.019.01-.01.03-.063.01-.011v-.012l.01-.012,0-.011v-.013c.009-.023.012-.029.025-.064v-.014l.01-.028V111.8l0,0v-.015l.006-.015v-.016l.006-.016v-.016l.006-.016v-.034l.006-.016,0-.073,0-.018,0-.038,0-.019,0-.08,0-.021v-.021l0-.021v-.022l0-.021V111.3l-.007-.044v-.022C133.322,110.1,132.234,108.171,131.132,108.524Z"/><path class="e" d="M158.07,111.508a7.664,7.664,0,0,1,1.606.247,5,5,0,0,1,3.619,2.911c1.084,2.407-.608,4.718-3.916,4.122a8.067,8.067,0,0,1-3.7-1.6C153.252,115,154.462,111.489,158.07,111.508Zm.55,1.858h0a4.5,4.5,0,0,0-1.155.382h0a2.025,2.025,0,0,0-.207.107c-.4.225-.385.259-.482.366v0a.424.424,0,0,0-.029.039v0l-.005.005v.007l-.01.011v.006l0,.006v.006l-.01.012v.012l0,.006v.006l-.005.006v.006l0,.006v.013l0,.006v.013l0,.007v.02l0,.007v.039l0,.008,0,.062,0,.011,0,.041,0,.012v.023l0,.012v.025l.008.026v.014l.008.028v.014c.011.038.023.087.032.125l.008.015.013.042.008.015.008.028.009.014,0,.014.008.014,0,.013.026.042,0,.014.052.084.013.014.017.028.013.014.009.014.013.014.009.014.026.029.009.014c.92.977,3.4,1.62,4.184,1.157h0l.038-.022,0-.006.019-.01.009-.01.01-.005c.039-.038.025-.023.048-.045v0l.009-.008v0l0,0v0l.009-.009v0l0,0v0l0,0v0l0,0V116.3l0,0v-.006l0,0v-.012l0-.006v-.007l.005-.007v-.007l0-.007v-.007l.01-.015V116.2l0-.009v-.018l0-.009v-.011l0-.01v-.01l0-.011,0-.048,0-.013a1.792,1.792,0,0,0-.156-.861V115.2a3.8,3.8,0,0,0-1.571-1.9l-.009,0A3.306,3.306,0,0,0,158.62,113.366Z"/><path class="a" d="M167.064,179.43a11.393,11.393,0,0,1-4.846-3.179c-3.262,5.107-6.344,9.314-10.361,14.955-.9,1.264-2.878,4.345-1.87,5.98,1.677,2.732,4.841-1.472,5.984-3.049,4.379-6.068,6.342-8.686,11.112-14.778"/><path class="e" d="M162.4,175.251c.456.133.49.23.795.589a10.879,10.879,0,0,0,3.824,2.814h0l.513.13,0,0,.251.467c-.094.338-.08.245-.068.406l-.06.06-.019.07h0c-10.368,14.3-10.821,15.4-12.653,17.348a5.767,5.767,0,0,1-3.447,2.074,2.677,2.677,0,0,1-2.4-1.263,3.861,3.861,0,0,1-.282-3.483c.753-2.454,2.673-4.711,6.91-10.688C161.83,175.048,161.441,175.165,162.4,175.251Zm-11.311,19.665a3.033,3.033,0,0,0-.219,1.455v.019c.012.04.023.068.042.126v0l.005.009v0l.01.018v0l0,.009,0,0v.005l0,.009a1.7,1.7,0,0,0,.139.193c.028.036.079.09.08.091l.01,0,.009.009.006.008.009,0,0,0,.01,0,.014.012.01,0,.01.009h0l.01.009h0l.009,0,0,0,.019.008h0l.009,0h.01l.009,0,.018,0,0,0,.111-.008.013-.006h.018l.014-.006h.014l.008,0h.014l.014-.006h.013l.041-.016h.013c.042-.014.022-.01.064-.023l.013-.01a1.827,1.827,0,0,0,.272-.131l0,0c1.532-.908,3.178-3.408,4.251-4.886,2.856-3.959,6.658-8.554,9.606-12.1a11.939,11.939,0,0,1-1.526-.684,10.821,10.821,0,0,1-1.85-1.22C157.923,185.262,151.911,192.326,151.084,194.916Z"/><path class="e" d="M182.776,120.14v0a31.3,31.3,0,0,1,30.452,31.339,33.446,33.446,0,0,1-1.021,8.212v.014a32.231,32.231,0,0,1-34.6,24,30.612,30.612,0,0,1-7.831-1.825A32.254,32.254,0,0,1,148.759,152.3a31.418,31.418,0,0,1,3.051-14.076,32.021,32.021,0,0,1,5.537-8.116A31.621,31.621,0,0,1,182.776,120.14Zm-4.98,2.529a29.167,29.167,0,0,0-22.763,16.749,28.814,28.814,0,0,0-2.494,14.524,28.519,28.519,0,0,0,56.923-1.251,30.1,30.1,0,0,0-.254-5.051,28.092,28.092,0,0,0-2.988-9.253,29.508,29.508,0,0,0-12.785-12.8A25.94,25.94,0,0,0,177.8,122.669Zm4.98-2.526v0C182.341,120.134,182.339,120.133,182.776,120.143Z"/><ellipse cx="186.653" cy="148.196" rx="5.524" ry="4.143" transform="translate(30.471 328.219) rotate(-87.504)"/><path class="e" d="M186.8,141.494a5.868,5.868,0,0,1,2.043.278c2.314.886,3.967,3.26,3.826,6.506a9.353,9.353,0,0,1-.451,2.634,6.7,6.7,0,0,1-4.39,4.513,5.173,5.173,0,0,1-4.882-1.309,7.086,7.086,0,0,1-1.749-2.666h0C179.433,146.884,182.293,141.3,186.8,141.494Zm.054,2.347c-2.234.4-2.871,3.558-2.319,5.755a2.857,2.857,0,0,0,1.769,2.224h.023l.018.006h.023l.023,0h.018l.023.006.129,0,.023,0h.023l.018,0h.024l.018,0h.023a2.744,2.744,0,0,0,1.841-1.758c1.077-2.386-.224-5.821-1.676-6.251Zm.157-2.32h0Z"/><path class="e" d="M202.778,141.66l.143.527a52.368,52.368,0,0,1-.523,6.2c-.408,3.235-.393,4.892-1.346,12.893a11,11,0,0,0-.352,2.693l.007.047v.023a1.27,1.27,0,0,0,.071.275l.009.009,0,.014.009.01,0,.014.008.014.009.01c.124.208.488.371,1.093.5.35.066.139-.024.742.309l.177.482v.005l-.241.459c-.565.215-.456.206-.828.19a2.916,2.916,0,0,1-2.578-1.228l0,0a3.326,3.326,0,0,1-.4-1.451c-.124-2.719.747-8.564.944-11.076.136-1.25.014-1.251.617-5.921a23.814,23.814,0,0,1,1.225-4.743l.336-.423.475-.113C202.39,141.379,202.765,141.651,202.778,141.66Z"/><path class="e" d="M177.366,127.454a6.327,6.327,0,0,1,3.175.825h0a3.379,3.379,0,0,1,1.639,2.357c.637,4.1-6.185,8.269-9.175,10.823-1.711,1.514-3.227,2.936-5.5,3.248-3.154.178-4.165-2.922-3.664-6.011a7.387,7.387,0,0,1,.842-2.405,17.2,17.2,0,0,1,8.766-7.975c1.445-.583,1.228-.5,1.743-.477l.238-.17A7.86,7.86,0,0,1,177.366,127.454Zm-1.659,1.6-.306-.068a24.045,24.045,0,0,0-6.579,5.274,14.449,14.449,0,0,0-2.453,3.745,5.215,5.215,0,0,0,.023,4.023l0,.014.013.014.017.029.009.009.017.029.009.009.009.014.017.02.009.014.009.009.013.01,0,.01.014.009.035.039.009,0,.017.019.009,0,.009.01.009,0,.009.009.009,0,.009.01.027.015.008.009.09.05h.014a.189.189,0,0,0,.041.02h.009a.1.1,0,0,1,.023.01h.013l.009,0h.014a.1.1,0,0,0,.023.01h.027l.014.006h.027l.014,0,.189.008.018,0h.023l.019,0h.023l.018,0a4.021,4.021,0,0,0,1.338-.458,10.917,10.917,0,0,0,1.951-1.417c4.815-4.12,7.261-5.365,9.1-8.026a4.916,4.916,0,0,0,.4-.733,2.254,2.254,0,0,0,.173-.6l.006-.022,0-.046,0-.019.006-.128,0-.019,0-.06,0-.018v-.019l-.008-.037v-.018l-.008-.038v-.018c-.014-.066-.024-.109-.03-.144l-.009-.014-.008-.037-.008-.015,0-.018-.009-.014,0-.019a.325.325,0,0,1-.017-.033l0-.019a1.716,1.716,0,0,0-.606-.7h0a3.835,3.835,0,0,0-.336-.217l-.028-.011-.022-.014A5.917,5.917,0,0,0,175.707,129.054Z"/><path class="e" d="M163.742,150.7c.534.324.444.239.5.4.241-.021.089-.036.358.039a4.234,4.234,0,0,1,.917.422,4.9,4.9,0,0,1,2.186,3.532,6.815,6.815,0,0,1-.408,3.544v0a4.892,4.892,0,0,1-7.545,2.394c-2.011-1.365-2.518-4.254-1.706-6.534a5.385,5.385,0,0,1,3.4-3.681A4.557,4.557,0,0,1,163.742,150.7Zm-.18,1.379a3.022,3.022,0,0,0-1.279.387l0,0a4.581,4.581,0,0,0-1.459,1.466l0,0a4.373,4.373,0,0,0-.532,1,8.071,8.071,0,0,0-.232.782c-.343,1.391.057,3.123,1.364,3.681a2.849,2.849,0,0,0,2.042.2,3.107,3.107,0,0,0,1.757-1.845h0a5.522,5.522,0,0,0,.31-.88,5.728,5.728,0,0,0,.178-1.448,3.9,3.9,0,0,0-.335-1.6,2.728,2.728,0,0,0-1.418-1.417h0l-.34-.332A.273.273,0,0,1,163.562,152.082Z"/><path class="e" d="M25.88,134.558a24.88,24.88,0,0,1,8.171,1.651c3.553,1.282,2.928,1,3.452,1.464l.061.5-.005.009-.331.386-.528.074,0,0a53.154,53.154,0,0,0-10.136-1.8,5.354,5.354,0,0,0-2.781.381l-.024.008a4.6,4.6,0,0,0-1.562,1.581l-.005,0a17.213,17.213,0,0,0-1.758,4.825,44.352,44.352,0,0,0-.962,13.2c.186,2.64.623,5.932,2.659,7.6,2.5,2.055,7.512,1.5,10.742.989,2.759-.393,1.989-.452,2.873-.252l.3.437v0l-.115.516-.446.308a57.609,57.609,0,0,1-7.148,1.314c-3.161.329-6.927-.291-8.82-2.826-3.326-3.991-2.631-15.8-1.479-20.926.694-3.11,1.657-6.8,4.317-8.557a5.174,5.174,0,0,1,1.527-.68A7.5,7.5,0,0,1,25.88,134.558Z"/><path class="e" d="M26.44,138.213a8.283,8.283,0,0,1,1.813,2.8l0,0c.853,2.218.958,5.624.965,8a40.368,40.368,0,0,1-1.149,9.021l0,.009c-.321,1.235-.221.81-.33,1.221h0c-.587,1.733-1.156,3.492-2.72,4.6h0l-.526.134-.46-.246h0l0,0-.126-.494.243-.492c.9-.807,1.377-2.806,1.584-4h0c.893-4.9,1.585-8.4,1.073-13.641-.184-1.762-.524-3.388-.552-3.5h0a8.29,8.29,0,0,0-.893-2.569h0l-.105-.534.221-.433,0,0,.48-.117Z"/><path class="a" d="M27.273,141.4c-2.566,3.894-2.938,7.869-3.154,12.012a18.417,18.417,0,0,0,.047,2.615c.076.8.095,3.312.871,3.9.112.088.6-.37.689-.467,1.989-2.143,2.122-10.387,2.129-13.324-.009-.54.024-4.049-1.158-3.566"/><path class="e" d="M27.649,140.819l.009.005.267.421c-.092.7-.024.422-.23.847l0,0c.893.695,1.053,3.155,1.084,4.29.217,3.468.044,10.272-1.757,13.253-.623.943-1.678,1.859-2.642,1.207-.918-.691-1.151-2.213-1.241-3.441h0a31.076,31.076,0,0,1-.16-3.619c.225-5.161.583-8.683,3.721-12.761v-.005l.459-.279Zm-2.265,10.424a33.377,33.377,0,0,0-.15,3.762c0,.169.152,2.485.21,2.778,1.17-3.053,1.622-12.012,1.46-13.827A29.923,29.923,0,0,0,25.384,151.243Z"/><path class="e" d="M55.7,132.942c.053.012,18.612,4.758,19.182,4.922,5.174,1.41,6.364,1.743,7.638,2.356a6.949,6.949,0,0,1,2.566,2.019c1.389,1.795,1.8,4.524,1.911,6.787a15.184,15.184,0,0,1-.289,3.779,40.208,40.208,0,0,1-1.449,4.59l-.349.4-.514.056c-.007-.008-.392-.334-.4-.34-.111-.964-.164.2.87-4a13.064,13.064,0,0,0,.3-2.208c.1-2.308-.428-6.422-1.973-7.9-1.092-1.8-11.432-3.964-22.4-6.8-4.015-1.039-10.013-2.864-14.149-2.529a3.537,3.537,0,0,0-2.184,1.066,15.774,15.774,0,0,0-1.4,1.584,20.846,20.846,0,0,0-2.56,4.4,31.4,31.4,0,0,0-2.335,9.809,29.6,29.6,0,0,0,.725,9.578,9.3,9.3,0,0,0,1.734,3.665c2.806,3.391,10.088,2.484,14.451,2.053l.005,0,.518.156.266.459v.009l-.146.509-.473.27c-.46-.02-6.29,1.191-10.879.457-6.141-.982-7.478-5.552-8.356-11.57a32.276,32.276,0,0,1,3.726-18.884,16.353,16.353,0,0,1,4.225-4.976,6.079,6.079,0,0,1,1.745-.7C48.512,131.377,51.94,132.129,55.7,132.942Z"/><path class="e" d="M35.162,146.246l0-.018.027.015.032.01,0-.018.059.021,0-.023a.249.249,0,0,0,.055.016l0-.023h0l.041.011-.008-.024.045.012-.008-.024.041,0-.008-.023h.037l-.008-.023.013.005h.019l-.013-.024h.014l.013,0-.017-.024H35.5l.013,0a.249.249,0,0,0-.017-.024h0l-.009-.009.005,0-.005,0,.009.009-.009-.009.009.009h0l0-.005.008.01.009,0h0l.009.01h0l0,0,.009,0,0,.005.036.02h.009a6.286,6.286,0,0,0,.811.215c.231.1.263.166.44.254.487.388-.1-.182,1.05.972-.875.661-.946.787-1.7.967h0a.974.974,0,0,1-.382-.016,3.362,3.362,0,0,1-2.148-1.126v-.005a1.123,1.123,0,0,1,.057-1.1l1.382-.1,0,0Z"/><path class="e" d="M37.188,155.77c.3.168.007-.089.905.823a4.285,4.285,0,0,1-1.386,1.022v0l-.141.063-.005,0a1.007,1.007,0,0,0-.131.05,2.761,2.761,0,0,0-1.042.337l-.015.013-.014.009-.005,0-.023.013-.014.013-.029.017-.014.014-.014.008-.025.022h0l-.038.035-.015.009-.033.031-.01,0-.018,0-.019.008h-.009l-.014,0s-.37.009-.388.01c-.25-.011.095.183-1.288-.775l0-.009c.036-.826.147-.871.591-1.209a3.993,3.993,0,0,1,1.131-.568A2.322,2.322,0,0,1,37.188,155.77Z"/><path class="e" d="M48.082,135.968l.03.039.009,0a10.778,10.778,0,0,1,2.292,3.859c.274.954.222.622.217.728.035.134.125.536.148.643a32.288,32.288,0,0,1,.547,8.482,29.082,29.082,0,0,1-1.973,9.106c-.9,2.165-2.036,5.171-4.373,5.4-.6-.026-.358.08-1.01-.3l-.157-.5v-.009l.259-.445.514-.175h.037l.014,0,.032,0,.014,0H44.7l.014,0h.014l.014,0h.014l.009,0h.014l.042-.012h.014s.107-.037.135-.045l.01-.009a.118.118,0,0,0,.023-.008l.014-.009.014,0c.008,0,.036-.018.048-.025l.009-.009c.178-.051.553-.416.957-1.143v-.009a18.561,18.561,0,0,0,1.167-3.105,32.291,32.291,0,0,0,1.656-6.7,31.753,31.753,0,0,0,.047-7.853,28.983,28.983,0,0,0-.617-3.386,14,14,0,0,0-1.319-3.674h0l-.1-.534.236-.432,0,0,.484-.108Z"/><path class="a" d="M48.623,139.2c-2.882,1.427-4.037,4.671-4.723,7.6-.477,2.017-.933,7.247-.538,9.076.363,1.872,1.761,5.638,3.35,4.321,3.1-2.57,3.208-11.785,3.062-15.818-.055-1.582-.158-3.651-1.349-4.873"/><path class="e" d="M49.24,138.885l0,.009.025.489a6.343,6.343,0,0,1,1.231,3.146,42.6,42.6,0,0,1,.322,4.345,33.2,33.2,0,0,1-.983,9.876c-.535,1.99-1.889,4.945-3.907,4.857-1.725-.076-2.739-2.375-3.276-4.018-.581-2.022-.728-2.566-.428-6.98.046-1.052.331-2.821.376-3.135h0c.734-3.741,2.157-7.31,5.644-8.868.107-.04-.013-.022.6-.042Zm-4.414,8.994h0a38.411,38.411,0,0,0-.462,4.776,21.441,21.441,0,0,0,.071,2.823,9.278,9.278,0,0,0,1.575,3.81l.014.01,0,0a3.087,3.087,0,0,0,.4-.421c2.309-2.636,2.75-14.743,2.262-17.128a4.839,4.839,0,0,0-.277-.938,3.133,3.133,0,0,0-.229-.462C46.191,142.182,45.432,145,44.826,147.879Z"/><path class="f" d="M48.105,143.986a3.77,3.77,0,0,1-.326,1.774v0c-1.3,3.529-.525,2.508-1.891,6.069v0l-.343.474-.445.16h-.009L44.7,152.2a2.278,2.278,0,0,1-.251-1.094,9.384,9.384,0,0,1,0-1.787,24.236,24.236,0,0,1,1.227-4.379v0a2.8,2.8,0,0,1,.867-1.284c.411-.377.139-.239,1.261-.6Z"/><path class="f" d="M27.1,149.728a5.427,5.427,0,0,1-.513,2.157c-.214.491-.009.229-.913,1.062-.72-.922-.626-.718-.73-1.2a7.734,7.734,0,0,1,.031-3.362c.129-1.227.124-1.249.225-1.469a6.165,6.165,0,0,1,.459-.694l.768-.607C27.589,147.073,27.413,146.783,27.1,149.728Z"/><path class="a" d="M87.426,149.446a3.082,3.082,0,0,1,2.073.638c1.619,1.183,1.9,3.7,1.629,5.642-.463,3.211-2.549,4.777-4.894,4.675a3.818,3.818,0,0,1-1.189-.292l-.4-.381c0-.007-.062-.5-.061-.5h0l.334-.368c1.021-.16,1.055-.006,1.608-.215h0a2.646,2.646,0,0,0,.869-.488h0a4.193,4.193,0,0,0,1.225-1.674c.447-1.08.519-3.71-.314-4.432l0-.009-.013-.01L88.277,152c-.006,0-.138-.119-.142-.121a1.8,1.8,0,0,1-.17-.114h-.009a3.557,3.557,0,0,0-.408-.253h0a2.69,2.69,0,0,0-.56-.255l0,0c-.249-.1-.756-.25-.864-.281l0,0-.476-.293-.184-.423v0l.221-.405.5-.255.023,0A5.77,5.77,0,0,1,87.426,149.446Z"/><path class="a" d="M126.458,192.719l0,0c.152.866.356.53-2.857,3.284-1.463,1.272-8.668,6.749-12.76,9.359-.019.014-.259.185-.271.191v0l-.523.166-.454-.153,0,0-.169-.445.156-.528v-.005c.1-.118-.018-.019.827-1.092a14.264,14.264,0,0,1,3.292-2.8c5.292-3.766,5.845-4.792,11.748-8.132l0,0,.562-.1Z"/><path class="a" d="M212.642,262.908a9.6,9.6,0,0,1,1.485,1.032c2.1,2.39,3.629,3.309,5.444,5.131.774.78.431.29.889,1.057l-.044.481,0,0v0l-.412.259-.579-.048,0,0a12.663,12.663,0,0,1-2.732-1.386,33.021,33.021,0,0,1-3.434-3.126,5.519,5.519,0,0,1-1.656-2.5l-.009-.014.084-.973Z"/></svg>