<?xml version="1.0" encoding="iso-8859-1"?>
<!-- Generator: Adobe Illustrator 19.0.0, SVG Export Plug-In . SVG Version: 6.00 Build 0)  -->
<svg version="1.1" id="Capa_1" xmlns="http://www.w3.org/2000/svg" xmlns:xlink="http://www.w3.org/1999/xlink" x="0px" y="0px"
	 viewBox="0 0 512 512" style="enable-background:new 0 0 512 512;" xml:space="preserve">
<g>
	<path style="fill:#B6B8BE;" d="M141.737,409.962l31.514,4.502C178.976,405.761,188.824,400,200,400V120
		c0-3.228,0.054-6.418,0.159-9.567c-0.081,0.405-0.134,0.82-0.152,1.243c-2.931,72.392-39.581,134.471-72.008,189.258v93.189
		C128,402.085,133.855,408.835,141.737,409.962z"/>
	<path style="fill:#B6B8BE;" d="M80,448c0,2.254,0.939,4.313,2.469,5.778c-1.53-1.465-2.469-3.525-2.469-5.782V448z"/>
	<path style="fill:#FF4F19;" d="M173.251,414.464l-31.514-4.502c-7.882-1.126-13.737-7.877-13.737-15.839v-93.189l0,0
		c-0.067,0.114-0.136,0.23-0.203,0.344C102.148,344.613,80,382.043,80,416v31.997c0,2.256,0.939,4.316,2.469,5.782
		c1.19,1.14,2.737,1.919,4.476,2.151L168,466.736V432C168,425.529,169.936,419.504,173.251,414.464z"/>
	<path style="fill:#B6B8BE;" d="M432,448v-0.003c0,2.256-0.939,4.316-2.469,5.782C431.06,452.313,432,450.254,432,448z"/>
	<path style="fill:#B6B8BE;" d="M312,400c11.176,0,21.024,5.761,26.749,14.464l31.514-4.502c7.882-1.126,13.737-7.877,13.737-15.839
		v-93.189c-32.427-54.787-69.076-116.866-72.008-189.258c-0.017-0.423-0.071-0.838-0.152-1.243c0.106,3.149,0.159,6.339,0.159,9.567
		V400z"/>
	<path style="fill:#FF4F19;" d="M384.203,301.277c-0.067-0.114-0.136-0.23-0.203-0.344l0,0v93.189
		c0,7.962-5.855,14.713-13.737,15.839l-31.514,4.502C342.064,419.504,344,425.529,344,432v34.736l81.055-10.807
		c1.74-0.232,3.286-1.012,4.476-2.151c1.53-1.465,2.469-3.525,2.469-5.782V416C432,382.043,409.851,344.613,384.203,301.277z"/>
	<path style="fill:#E3E6E9;" d="M200,400c5.827,0,11.29,1.572,16,4.304V120v-12.965c0-1.938,0.879-3.809,2.471-5.266
		C228.041,93.02,241.722,88,256,88s27.959,5.02,37.529,13.77c1.592,1.457,2.471,3.328,2.471,5.266V120v284.304
		c4.71-2.732,10.173-4.304,16-4.304V120c0-3.228-0.054-6.418-0.159-9.567C309.71,46.836,286.415,0,256,0
		s-53.71,46.836-55.841,110.433C200.054,113.582,200,116.772,200,120V400z"/>
	<path style="fill:#D5D9DE;" d="M288,128h-64c-5.527,0-8-3.582-8-8v284.304c7.323,4.247,12.821,11.306,14.988,19.696H248v-96
		c0-4.418,3.578-8,8-8s8,3.582,8,8v96h17.012c2.167-8.39,7.664-15.449,14.988-19.696V120C296,124.418,293.527,128,288,128z"/>
	<path style="fill:#5C546A;" d="M281.012,424H264v56h16v-48C280,429.238,280.352,426.558,281.012,424z"/>
	<path style="fill:#5C546A;" d="M230.987,424c0.661,2.558,1.012,5.238,1.012,8v48h16v-56H230.987z"/>
	<path style="fill:#888693;" d="M230.987,424c-2.167-8.39-7.664-15.449-14.988-19.696c-4.71-2.732-10.173-4.304-16-4.304
		c-11.176,0-21.024,5.761-26.749,14.464C169.936,419.504,168,425.529,168,432v34.736V480h40h16h8v-48
		C232,429.238,231.648,426.558,230.987,424z"/>
	<path style="fill:#E5001E;" d="M264,328c0-4.418-3.578-8-8-8s-8,3.582-8,8v96v56v24c0,4.418,3.578,8,8,8s8-3.582,8-8v-24v-56V328z"
		/>
	<path style="fill:#5C546A;" d="M224,128h64c5.527,0,8-3.582,8-8v-12.965c0-1.938-0.879-3.809-2.471-5.266
		C283.959,93.02,270.277,88,256,88s-27.959,5.02-37.529,13.77c-1.592,1.457-2.471,3.328-2.471,5.266V120
		C216,124.418,218.472,128,224,128z"/>
	<path style="fill:#5C546A;" d="M208,480h-40v24c0,4.418,3.578,8,8,8h48c4.422,0,8-3.582,8-8v-24h-8H208z"/>
	<path style="fill:#888693;" d="M344,432c0-6.471-1.936-12.496-5.251-17.536C333.024,405.761,323.176,400,312,400
		c-5.827,0-11.29,1.572-16,4.304c-7.323,4.247-12.821,11.306-14.988,19.696c-0.661,2.558-1.012,5.238-1.012,8v48h8h16h40v-13.263
		V432z"/>
	<path style="fill:#5C546A;" d="M288,480h-8v24c0,4.418,3.578,8,8,8h48c4.422,0,8-3.582,8-8v-24h-40H288z"/>
</g>
<g>
</g>
<g>
</g>
<g>
</g>
<g>
</g>
<g>
</g>
<g>
</g>
<g>
</g>
<g>
</g>
<g>
</g>
<g>
</g>
<g>
</g>
<g>
</g>
<g>
</g>
<g>
</g>
<g>
</g>
</svg>
