<?xml version="1.0" encoding="iso-8859-1"?>
<!-- Generator: Adobe Illustrator 19.0.0, SVG Export Plug-In . SVG Version: 6.00 Build 0)  -->
<svg version="1.1" id="Capa_1" xmlns="http://www.w3.org/2000/svg" xmlns:xlink="http://www.w3.org/1999/xlink" x="0px" y="0px"
	 viewBox="0 0 512 512" style="enable-background:new 0 0 512 512;" xml:space="preserve">
<g>
	<circle style="fill:#FFCF00;" cx="256" cy="256" r="112"/>
	<path style="fill:#FFCF00;" d="M256,72c4.422,0,8-3.582,8-8V8c0-4.418-3.578-8-8-8s-8,3.582-8,8v56C248,68.418,251.578,72,256,72z"
		/>
	<path style="fill:#FFCF00;" d="M256,120c4.422,0,8-3.582,8-8V96c0-4.418-3.578-8-8-8s-8,3.582-8,8v16
		C248,116.418,251.578,120,256,120z"/>
	<path style="fill:#FFCF00;" d="M256,440c-4.422,0-8,3.578-8,8v56c0,4.422,3.578,8,8,8s8-3.578,8-8v-56
		C264,443.578,260.422,440,256,440z"/>
	<path style="fill:#FFCF00;" d="M256,392c-4.422,0-8,3.578-8,8v16c0,4.422,3.578,8,8,8s8-3.578,8-8v-16
		C264,395.578,260.422,392,256,392z"/>
	<path style="fill:#FFCF00;" d="M504,248h-56c-4.422,0-8,3.578-8,8s3.578,8,8,8h56c4.422,0,8-3.578,8-8S508.422,248,504,248z"/>
	<path style="fill:#FFCF00;" d="M400,248c-4.422,0-8,3.578-8,8s3.578,8,8,8h16c4.422,0,8-3.578,8-8s-3.578-8-8-8H400z"/>
	<path style="fill:#FFCF00;" d="M72,256c0-4.422-3.578-8-8-8H8c-4.422,0-8,3.578-8,8s3.578,8,8,8h56C68.422,264,72,260.422,72,256z"
		/>
	<path style="fill:#FFCF00;" d="M112,248H96c-4.422,0-8,3.578-8,8s3.578,8,8,8h16c4.422,0,8-3.578,8-8S116.422,248,112,248z"/>
	<path style="fill:#FF9300;" d="M148.523,352.164l-66.18,66.18c-3.125,3.125-3.125,8.188,0,11.313C83.906,431.219,85.953,432,88,432
		s4.094-0.781,5.656-2.344l66.18-66.18c3.125-3.125,3.125-8.188,0-11.313S151.648,349.039,148.523,352.164z"/>
	<path style="fill:#FF9300;" d="M357.82,162.176c2.047,0,4.094-0.781,5.656-2.344l66.18-66.176c3.125-3.125,3.125-8.188,0-11.313
		s-8.187-3.125-11.312,0l-66.18,66.176c-3.125,3.125-3.125,8.188,0,11.313C353.726,161.395,355.773,162.176,357.82,162.176z"/>
	<path style="fill:#FF7400;" d="M193.5,126.023c1.273,3.078,4.258,4.941,7.391,4.941c1.023,0,2.063-0.199,3.063-0.613
		c4.078-1.691,6.016-6.371,4.328-10.453L183.789,60.77c-1.688-4.082-6.383-6-10.453-4.328c-4.078,1.691-6.016,6.371-4.328,10.453
		L193.5,126.023z"/>
	<path style="fill:#FF7400;" d="M318.5,385.976c-1.695-4.078-6.383-6-10.453-4.328c-4.078,1.688-6.016,6.367-4.328,10.453
		l24.492,59.125c1.273,3.078,4.258,4.938,7.391,4.938c1.023,0,2.063-0.195,3.063-0.609c4.078-1.688,6.016-6.367,4.328-10.453
		L318.5,385.976z"/>
	<path style="fill:#FF9300;" d="M363.476,352.164c-3.125-3.125-8.188-3.125-11.313,0s-3.125,8.188,0,11.313l66.18,66.18
		c1.563,1.563,3.609,2.344,5.656,2.344c2.047,0,4.094-0.781,5.656-2.344c3.125-3.125,3.125-8.188,0-11.313L363.476,352.164z"/>
	<path style="fill:#FF9300;" d="M148.523,159.832c1.563,1.563,3.609,2.344,5.656,2.344s4.094-0.781,5.656-2.344
		c3.125-3.125,3.125-8.188,0-11.313l-66.18-66.176c-3.125-3.125-8.188-3.125-11.313,0s-3.125,8.188,0,11.313L148.523,159.832z"/>
	<path style="fill:#FF7400;" d="M308.047,130.352c1,0.414,2.039,0.613,3.063,0.613c3.133,0,6.117-1.863,7.391-4.941l24.492-59.129
		c1.688-4.082-0.25-8.762-4.328-10.453c-4.055-1.676-8.766,0.242-10.453,4.328l-24.492,59.129
		C302.031,123.98,303.969,128.66,308.047,130.352z"/>
	<path style="fill:#FF7400;" d="M203.953,381.648c-4.055-1.68-8.766,0.242-10.453,4.328l-24.492,59.125
		c-1.688,4.086,0.25,8.766,4.328,10.453c1,0.414,2.039,0.609,3.063,0.609c3.133,0,6.117-1.859,7.391-4.938l24.492-59.125
		C209.969,388.015,208.031,383.336,203.953,381.648z"/>
	<path style="fill:#FF7400;" d="M130.352,308.047c-1.688-4.086-6.391-6.016-10.453-4.328l-59.125,24.492
		c-4.078,1.688-6.016,6.367-4.328,10.453c1.273,3.078,4.258,4.938,7.391,4.938c1.023,0,2.063-0.195,3.063-0.609l59.125-24.492
		C130.102,316.812,132.039,312.133,130.352,308.047z"/>
	<path style="fill:#FF7400;" d="M381.648,203.953c1.273,3.078,4.258,4.938,7.391,4.938c1.023,0,2.063-0.195,3.063-0.609
		l59.125-24.492c4.078-1.688,6.016-6.367,4.328-10.453c-1.688-4.078-6.391-6-10.453-4.328L385.976,193.5
		C381.898,195.187,379.961,199.867,381.648,203.953z"/>
	<path style="fill:#FF7400;" d="M60.773,183.789l59.125,24.492c1,0.414,2.039,0.609,3.063,0.609c3.133,0,6.117-1.859,7.391-4.938
		c1.688-4.086-0.25-8.766-4.328-10.453l-59.125-24.492c-4.063-1.676-8.766,0.25-10.453,4.328
		C54.758,177.422,56.695,182.102,60.773,183.789z"/>
	<path style="fill:#FF7400;" d="M451.226,328.211l-59.125-24.492c-4.063-1.688-8.766,0.242-10.453,4.328s0.25,8.766,4.328,10.453
		l59.125,24.492c1,0.414,2.039,0.609,3.063,0.609c3.133,0,6.117-1.859,7.391-4.938C457.242,334.578,455.304,329.898,451.226,328.211
		z"/>
</g>
<g>
</g>
<g>
</g>
<g>
</g>
<g>
</g>
<g>
</g>
<g>
</g>
<g>
</g>
<g>
</g>
<g>
</g>
<g>
</g>
<g>
</g>
<g>
</g>
<g>
</g>
<g>
</g>
<g>
</g>
</svg>
