<svg xmlns="http://www.w3.org/2000/svg" viewBox="0 0 300 300"><defs><style>.a{fill:#f97d7d;}.a,.b{fill-rule:evenodd;}</style></defs><title>Treasure chest</title><path class="a" d="M293.584,132.935c-6.323,33.372-43.71,35.361-59.18,32.332-1.473,6.467-14.774,67.734-16.248,72.891-5.525,4.051-72.931,30.7-78.334,32.291-9.331-3.07-110.052-51.977-122.985-60.9-2.262-11-6.418-54.162-6.871-69.1-.1-3.366-.4-2.754,3.335-4.837a84.728,84.728,0,0,1,8.952-3.906c.957-.376,1.689.961.739,1.45-2.25,1.16-4.44,2.412-6.6,3.746-3.161,1.958-3.552,2.838-.141,4.242,30.5,12.559,125.185,50.516,127.454,50.149,2.456-.41,83.017-25.693,88.28-28.013,2.66-2.969,27.338-68.188,31.973-100.082C277.582,70.072,300.992,93.839,293.584,132.935Zm-178.767,21.35a.863.863,0,0,0-1.538-.343c-.644,1-1.756,6-2.141,7.49-.63,2.447-.24,4.434.1,7.009a24.344,24.344,0,0,0,.842,4.37.915.915,0,0,0,1.753-.222,38.876,38.876,0,0,0-.688-4.311,16.246,16.246,0,0,1,0-6.307C113.535,160.421,114.911,155.541,114.817,154.285Zm-1.49-3.907c-1.91-1.738-5.652-3.981-7.968-5.747a.85.85,0,0,0-1.151,1.25c1.707,1.658,5.992,5.155,8.1,5.945A.894.894,0,0,0,113.327,150.378Zm-12.021-7.762c-2.566,3.192-5.194,6.353-7.611,9.659a.879.879,0,0,0,1.374,1.095c2.911-3.208,5.614-6.613,8.382-9.944.41-.492,12.731-3.511,13.75-3.779a104.79,104.79,0,0,1,10.33,6.645c-3.335,1.816-7.575,3.021-11.078,4.574a.906.906,0,0,0,.634,1.673c.533-.163,11.889-4.016,12.06-4.189a59.172,59.172,0,0,1,4.2,8.193,184.536,184.536,0,0,1-18.019,6.812c-1.095.366-.43,1.911.636,1.638a129.677,129.677,0,0,0,16.852-5.53c-1.955,4.338-4.575,8.139-6.565,12.368a.853.853,0,0,0,1.448.86c2.446-3.075,4.417-7.117,6.375-10.585,1.392-2.465,2.68-4.245,1.546-6.944a39.23,39.23,0,0,0-3.411-6.454,13.6,13.6,0,0,0-3.751-4.1,74.59,74.59,0,0,0-9.574-6.147,4.23,4.23,0,0,0-3.4-.342,113.545,113.545,0,0,0-12.234,3.259C102.106,141.775,102.072,141.663,101.306,142.616Zm5.946,18.855c-3.809-2.261-8.159-4.458-12.1-6.665-.926-.518-1.806.428-1.265,1.623.82,1.813,4.8,10.864,6.53,12.287.728.6,1.957-.2,1.476-.962a102.378,102.378,0,0,1-5.294-9.931,68.608,68.608,0,0,0,9.742,5.261C107.287,163.444,108.2,162.033,107.252,161.471Zm61.139-6.992c-.14,1.8,1.921,2.452,2.048.263.34-5.837-2.468-12.777-2.079-18.118a40.746,40.746,0,0,1,4.4-15.846c.667,3.16,3.09,5.565,5.459,7.587a35.911,35.911,0,0,0,25.635,8.476c1.053-.066,1-1.908-.076-1.869-9.657.346-20.066-3.342-26.563-10.7-4.38-4.96-2.929-9.386,3.974-9.706,10.065-.467,19.614,4.459,25.805,12.272.752.95,2.108-.2,1.44-1.172-6.068-8.823-16.994-13.845-27.624-13.308-6.347.321-8.584,3.63-10.94,9.264a55.4,55.4,0,0,0-3.491,12.8C165.58,140.611,168.888,148.04,168.391,154.479Zm38.066-17.825c-2.969,6.827-7.553,10.907-14.741,14.447-3.743,1.844-7.666,2.824-11.294,5.062a14.423,14.423,0,0,0-6.257,8.293.874.874,0,0,0,1.645.585c1.364-3.643,4.946-6.836,8.405-8.631,3.825-1.983,6.063-2.217,9.924-4.021a27.233,27.233,0,0,0,13.984-15.142A.885.885,0,0,0,206.457,136.654ZM41.29,111.21a78.941,78.941,0,0,1,6.988,9.8,65.036,65.036,0,0,1,5.371,10.615c.472,1.331,1.723.437,1.525-.571-.676-3.451-3.845-9.281-5.017-11.191a53.777,53.777,0,0,0-7.622-9.831C41.848,109.341,40.674,110.454,41.29,111.21Zm10.085,1.033c7.924,3.011,9.762-1.526,9.143-8.543a28.674,28.674,0,0,0-2.25-9.751c-.452-.946-1.809-.237-1.606.69a76.911,76.911,0,0,1,1.781,8.463c.583,5.562.688,10.067-6.845,7.11a21.623,21.623,0,0,1-6.659-4.2.871.871,0,0,0-1.224,1.237A21.148,21.148,0,0,0,51.375,112.243Zm9.561-19.58a28.555,28.555,0,0,0,3.879,9.925c4.442,7.185,9.307,9.9,15.477,2.366a17.413,17.413,0,0,0,3.873-9.145c.123-1.148-1.5-1.235-1.737-.168A19.318,19.318,0,0,1,79,103.214c-5.641,7.423-9.5,3.41-12.972-2.544a32,32,0,0,1-3.309-8.3C62.442,91.261,60.728,91.5,60.936,92.663Zm26.034,3.46c-2.513,8.106-3.7,19.471-2.117,27.824a.856.856,0,0,0,1.7-.2c-.4-10.283-.266-17.016,2.071-27.154C88.84,95.653,87.261,95.187,86.97,96.123ZM89.784,85.56c-1.16-1.371-3.382-2.17-4.977-1.038a.887.887,0,0,0,.627,1.582,2.515,2.515,0,0,1,3.017,1.036c1.6,2.478-.29,6.456-3.652,3.926a2.218,2.218,0,0,1-.8-2.843.847.847,0,0,0-1.431-.866,3.669,3.669,0,0,0,.384,4.651C87.767,97.273,93.842,90.354,89.784,85.56ZM60.773,89.829a4.667,4.667,0,0,0,.645-4.566,4.5,4.5,0,0,0-3.555-2.922C56.2,82.1,53.936,83,53.407,84.7a.906.906,0,0,0,1.526.908,3.009,3.009,0,0,1,3.389-1.033c2.21.855,1.793,3.508.3,4.675-1.821,1.425-3.953.531-4.02-.833-.062-1.258-1.465-1.644-1.655-.59C52.384,90.958,57.542,93.762,60.773,89.829ZM34.461,103.667c.913-1.017,1.974-1.949,3.435-1.5a2.59,2.59,0,0,1,1.119,4.334,2.037,2.037,0,0,1-2.78-.042c-1.613-1.669-2.581.068-1.238,1.365a3.917,3.917,0,0,0,6.415-1.5,4.721,4.721,0,0,0-3-6.14c-2.154-.709-5.193.5-5.6,2.891A.91.91,0,0,0,34.461,103.667ZM86,146.57a13.384,13.384,0,0,1,6.679,1.994c.985.551,1.62-.973.881-1.635-2.122-1.9-5.607-2.591-8.369-2.57-4.807.035-13.419,3.528-11.892,9.462.7,2.707,3.455,3.933,5.864,4.751a.932.932,0,0,0,.656-1.743c-1.722-.627-4.193-1.563-4.555-3.631C74.473,148.675,82.443,146.391,86,146.57Zm18.141-9.223a3.435,3.435,0,0,0,1.39-5.122c-2.407-3.76-10.86-4.829-14.673-3.034a7.13,7.13,0,0,0-4.151,5.694,5.343,5.343,0,0,0,4.123,5.691.92.92,0,0,0,.423-1.79,3.574,3.574,0,0,1-2.293-4.682,5.99,5.99,0,0,1,5.346-3.676c4.172-.322,8.51.849,9.541,3.222a1.765,1.765,0,0,1-.411,2.111C102.651,136.285,103.178,137.712,104.14,137.347ZM96.89,125.2a.862.862,0,0,0,.07-1.7c-2.831-.425-2.695-3.732-1.023-5.372,3.305-3.241,11.094-2,14.712.214,1.6.978,3.591,3.664,1.406,4.942-.846.5-.643,1.894.394,1.733,2.469-.382,3.408-3.266,2.416-5.367-2.329-4.933-11.438-6.3-16.2-5.17C90.5,116.425,91.53,125.308,96.89,125.2Zm24.784,3.951a4.169,4.169,0,0,1,.842-5.372,7.291,7.291,0,0,1,6.1-1.406c4.09.686,9.591,3.351,9.855,8.07a.868.868,0,0,0,1.733.068c.418-2.975-1.557-5.586-3.894-7.181a17.976,17.976,0,0,0-8.607-3.11,8.581,8.581,0,0,0-7.279,2.876,5.755,5.755,0,0,0-.038,7.247C121.129,131.229,122.321,130.044,121.674,129.154Zm14.44,14.144a7.251,7.251,0,0,0,6.457,6.579.962.962,0,0,0,.225-1.909,5.3,5.3,0,0,1-4.339-6.644c1.573-5.451,13.042-6.234,17.237-3.469a6.287,6.287,0,0,1,2.414,8.108c-.463.863.921,1.574,1.48.815a7.1,7.1,0,0,0-.251-8.517C153.943,130.981,135.5,133.332,136.114,143.3Zm9.3,41.386c-.984.462-.519,2,.56,1.634,3.468-1.165,7.357-3.034,8.473-6.837,2.538-8.647-9.57-11.391-16.285-9.624-3.407.9-7.442,2.92-9.076,6.225-2.048,4.143,1.589,7.163,5.04,8.657,1.1.477,1.925-1.176.824-1.683-3.67-1.69-6.355-4.328-2.568-7.869,4.862-4.547,18.078-6.105,20.048,1.382C153.593,180.991,148.571,183.2,145.414,184.684Zm14.591-11.155c-1.02.249-.68,1.924.361,1.806a11.772,11.772,0,0,0,7.994-4.14c7-8.9-3.892-16.445-13.949-15.148-3.352.432-6.7,2.05-7.529,5.6-.269,1.158,1.5,1.507,1.8.369.9-3.414,5.165-3.986,8.113-4.07,5.8-.166,13.885,3.61,10.879,10.326C166.288,171.369,163.115,172.77,160.005,173.529Zm37.983-6.381a20.366,20.366,0,0,1-8.9.128c-2.421-.5-5.556-1.431-6.776-3.816-.508-.994-2.1-.43-1.653.648,1,2.425,3.279,3.778,5.681,4.582a22.463,22.463,0,0,0,8.952,1.076c5.26-.437,12.09-3.53,8.126-9.765-1.543-2.426-5.156-3.586-7.946-3.207a.927.927,0,0,0-.054,1.827c2.4.419,5.226.863,6.255,3.424C202.9,165.114,200.622,166.507,197.988,167.148ZM68.69,128.632a17.441,17.441,0,0,1,8-1.165c3.277.388,3.867,1.624,5.729,3.868a.9.9,0,0,0,1.533-.615c-.16-2.4-2.68-4.124-4.735-4.881-3.927-1.446-12.22-.19-14.86,3.336a6.79,6.79,0,0,0-.713,6.818,6.577,6.577,0,0,0,6.464,3.664c1.146-.1,1.221-1.86.032-1.822a4.788,4.788,0,0,1-4.877-3.727C64.783,131.556,66.4,129.524,68.69,128.632ZM57.345,152.25a.855.855,0,0,0-.288,1.685c7.912,1.831,13.764-3.188,8.964-9.659-3.576-4.821-13.057-7.5-18.011-3.253-2.588,2.217-3.714,6.306-1.419,9.153a.908.908,0,0,0,1.482-1.049c-1.572-2.772,0-6.049,2.708-7.334,4.068-1.927,10.885.265,13.612,3.823C68.751,151.3,62.11,152.949,57.345,152.25ZM39.821,141.394c1.081-.23.926-2.07-.177-1.748-3.027.886-9.1,1.243-9.409-3.066-.3-4.284,6.9-6.97,10.286-7.021,2.366-.035,6.408.913,5.709,4.122a.874.874,0,0,0,1.649.507c1.072-2.759-1.066-5.215-3.6-6.034-8.4-2.714-20.79,5.714-14.354,12.279C32.122,142.677,36.606,142.081,39.821,141.394ZM16.827,112.885a.943.943,0,0,0-.363-1.851c-3.424.292-7.475.422-10.792,1.026a.865.865,0,0,0,.112,1.7C9.233,113.783,13.325,113.2,16.827,112.885ZM14.858,87.978c3.375,1.753,6.843,3.361,10.313,4.916,1.042.467,1.7-1.117.69-1.622-3.4-1.708-6.832-3.384-10.321-4.894C14.5,85.929,13.876,87.468,14.858,87.978ZM47.934,75.035a.829.829,0,0,0,1.366-.9,63.1,63.1,0,0,0-3.9-6.887.853.853,0,0,0-1.536.74A64.19,64.19,0,0,0,47.934,75.035Zm29.01-.1c-.1-3.305-.126-6.624-.36-9.923a.858.858,0,0,0-1.708.17c-.025,3.309.163,6.625.272,9.932C75.186,76.272,76.979,76.089,76.944,74.932ZM94.073,76.2c1.141-3.193,2.491-6.594,3.421-9.827a.84.84,0,0,0-1.617-.457c-1.288,3.111-2.355,6.609-3.455,9.818C92.063,76.781,93.7,77.232,94.073,76.2ZM59.785,252.489c-1.177-.275-1.745,1.077-.56,1.566,2.163.894,6.518,2.579,4.96,5.775-1.641,3.366-9.009,3.861-12.394,3.5-3.563-.384-9.3-2.634-5.727-7.112,2.253-2.824,6.512-2.686,9.76-2.639,1.119.016,1.3-1.672.16-1.756-3.839-.279-8.2-.338-11.084,2.664-4.991,5.188.136,10.3,5.96,11.056,4.493.584,12.726-.3,15.076-4.623C68.262,256.635,63.485,253.351,59.785,252.489Zm-13.4-14.345c-3.761-2.243-8.7-1.682-12.589-.024-1.269.541-.479,2.27.784,1.933,3.047-.815,6.1-1.817,9.24-.789,5.963,1.947,6.2,8.428-2.093,9.81a21.523,21.523,0,0,1-8.7-.218c-3.825-1.191-3.578-4.409-1.424-7,.722-.867-.528-1.7-1.271-.88-2.23,2.473-3.308,6.45-.406,8.879,2.568,2.15,7.616,2.072,10.772,1.746C50.416,250.6,53.975,242.672,46.383,238.144Zm-30.2,15.37a.909.909,0,0,0,.311,1.768c2.833.061,6.706-1.009,8.584,1.9,1.691,2.617-.258,5.753-2.4,7.367-3.732,2.815-13.854,4.212-15.167-1.094-.867-3.5,2.934-5.886,5.455-7.352,1.039-.6.056-2.15-.984-1.575-3.146,1.743-6.526,4.123-6.557,8.116-.059,7.749,12.8,7.576,18.1,3.828,2.88-2.038,5.191-5.6,3.9-9.23C25.844,252.809,20.056,252.245,16.178,253.514Z"/><path class="b" d="M67.43,175.942c.427-4.669,5.961-5.218,7.375-.3.606,2.108-.208,5.032-2.275,6.056a14.306,14.306,0,0,1-.322,4.3,1.534,1.534,0,0,1-2.72-.3,13.383,13.383,0,0,1,.049-4.134C67.876,180.634,67.175,178.723,67.43,175.942Zm76.209,22.238c-1.631,22.377-2.591,44.849-3.585,67.262-.049,1.123,1.708,1.382,1.788.193,1.508-22.348,2.821-44.881,3.573-67.264C145.453,197.236,143.723,197.023,143.639,198.18ZM20.761,153.77c11.735,6.189,21.874,9.695,34.665,14.975,1.079.445,1.829-1.227.742-1.677-13.284-5.5-23.571-9.051-35.9-15.474a.925.925,0,0,0-1.382.757,213.95,213.95,0,0,0,.782,25.855,208.394,208.394,0,0,0,2.813,23.008c.179,1.064,1.764.665,1.618-.381-1.3-9.295-1.929-13.768-2.614-23.13C20.838,168.891,20.955,162.368,20.761,153.77Zm113.011,44.617c-17.051-5.841-33.855-12.313-50.576-19.032a1.263,1.263,0,0,0-1.773,1.229c-.136,4.838-.756,12.8-1.068,15.62a169.03,169.03,0,0,1-19.648-8.463c-.23-6.141-.255-10.808-.149-16.959.022-1.332-1.6-1.642-1.718-.177-.554,6.9-.279,11.419-.289,15.932,0,1.314-.03,2.4,1.13,3.05a119.6,119.6,0,0,0,21,8.891c.556.174,1.359.1,1.47-.612.639-4.03.577-11.015,1.044-16.684,16.237,6.873,32.8,13.014,49.467,18.751-.412,9.7-1.194,19.421-1.751,28.872-.55,9.323-1.126,16.117-1.636,25.227-20.846-8.969-42.13-18.767-62.785-28.967-13.621-6.726-26.893-13.813-40.337-20.857-.943-.5-1.855.882-.9,1.418,13.351,7.515,24.69,13.233,38.406,20.054,21.777,10.83,43.76,20.924,66.1,30.514a.827.827,0,0,0,1.22-.662c.629-9.831,1.18-16.908,1.76-26.741.534-9.055,1.211-18.379,1.617-27.442C134.393,200.43,134.76,198.726,133.772,198.387Zm87.351-22.615c-20.6,8.4-43.972,16.156-65.223,22.671-.721.221-.625,1.234-.685,1.842-1.848,18.676-3.491,35.069-5.192,53.836-.059.646.414,1.2,1.087.967,10.245-3.48,20.3-7.66,30.411-11.511s19.02-7.1,29.052-11.182a.87.87,0,0,0-.592-1.635c-10.206,3.622-18.945,7.291-29.068,11.141-9.636,3.664-19.431,7.07-28.956,11.025,1.759-18.507,3.438-34.446,5.047-53.047,20.8-5.628,43.333-13.873,63.372-21.879-2.765,17.818-4.56,31.781-9.02,49.473-.264,1.046,1.256,1.242,1.539.189,4.9-18.23,6.594-32.4,9.492-51.053C222.5,175.864,221.68,175.545,221.123,175.772Zm48.494-95.467c-.858-.865-2.018.646-1.164,1.5,12.9,12.886,19.823,31.514,13.922,49.264-5.235,15.749-20.242,26.915-37.1,24.278a629.513,629.513,0,0,0,22.314-68.113.873.873,0,0,0-1.674-.493c-6.512,23.183-13.611,46.13-22.442,68.537-.227.576-.394,1.409.424,1.572,13.541,2.7,27.72-3.937,35.317-15.254C292.661,121.569,285.576,96.375,269.617,80.305Zm-8.324-17.928c-3.4,21.855-29.112,97.1-32.148,98.17s-23.062-6.33-27.912-8.7c8.84-8.1,20.832-26.9.061-38.16-20.332-11.017-36.1-5.341-37.943,18.725-5.582-7.115-14.126-5.26-18.055-3.868-.48-10.5-18.038-15.138-25.575-10.375-7.315-10.007-21.93-9.577-28.192-4.911,2.783-11.459,24.618-82.57,26.459-83.675S257.3,60.463,261.293,62.377ZM108.759,100.955a79.289,79.289,0,0,0-3.063-7.471.877.877,0,0,0-1.6.65,78.66,78.66,0,0,0,3.074,7.466C107.555,102.484,109.109,101.869,108.759,100.955Zm11.756-9.1c.178-.939-1.357-1.281-1.641-.374-.907,2.9-1.621,6.321-2.294,9.31-.208.926,1.387,1.293,1.641.373C119.055,98.142,119.933,94.93,120.515,91.855Zm9.639,8.444a16.253,16.253,0,0,1-4.915,4.549c-.925.575-.187,2.053.761,1.511a14.472,14.472,0,0,0,5.559-5.116A.846.846,0,0,0,130.154,100.3Zm22.524-34.176a49.163,49.163,0,0,0-27.826-30.965.885.885,0,0,0-.692,1.628,48.956,48.956,0,0,1,27.3,34.767c2.8,14.157-.648,31.7-13.437,40.082-.854.56-.016,2.077.9,1.584C154.823,104.693,157.513,81.957,152.678,66.123Zm10.5,45.166a67.132,67.132,0,0,0-6-6.107c-.735-.628-1.8.468-1.189,1.208a67.153,67.153,0,0,0,5.993,6.119C162.673,113.143,163.831,112.035,163.178,111.289Zm13.12-8.612c-.82-2.612-1.891-6.876-3-9.314a.843.843,0,0,0-1.629.355,94.159,94.159,0,0,0,2.943,9.559C174.964,104.376,176.641,103.771,176.3,102.677Zm20.955-10.486c.151-.967-1.4-1.214-1.669-.3a105.177,105.177,0,0,0-2.469,11.028c-.163.953,1.4,1.211,1.657.3A105.476,105.476,0,0,0,197.253,92.191Zm20.406,10.84c.571-.7-.544-1.828-1.3-1.119-2.123,1.979-4.467,4.653-6.4,6.859a.864.864,0,0,0,1.149,1.291C213.23,107.922,215.772,105.351,217.659,103.031ZM225.85,144.3a51.2,51.2,0,0,1-7.734-2.17c-1.105-.4-1.814.964-.713,1.417a47.688,47.688,0,0,0,8.095,2.424A.855.855,0,1,0,225.85,144.3Zm2.433-22.116a63.768,63.768,0,0,0-8.349.944.94.94,0,0,0,.041,1.879,65.168,65.168,0,0,0,8.585-1.069A.9.9,0,0,0,228.283,122.188Z"/></svg>