<?xml version="1.0" encoding="iso-8859-1"?>
<!-- Generator: Adobe Illustrator 19.0.0, SVG Export Plug-In . SVG Version: 6.00 Build 0)  -->
<svg version="1.1" id="Capa_1" xmlns="http://www.w3.org/2000/svg" xmlns:xlink="http://www.w3.org/1999/xlink" x="0px" y="0px"
	 viewBox="0 0 505.007 505.007" style="enable-background:new 0 0 505.007 505.007;" xml:space="preserve">
<g>
	<polygon style="fill:none;" points="392.001,84.32 347.315,129.006 392.001,173.693 	"/>
	<polygon style="fill:none;" points="291.317,73.007 336.002,117.694 380.689,73.007 	"/>
	<path style="fill:#FF9300;" d="M380.689,73.007l-44.686,44.686l5.657,5.658l0,0l5.655,5.655l44.686-44.686v89.374l16,16V68.32
		l21.654-21.654c-4.942-2.365-8.947-6.371-11.312-11.313l-21.654,21.654H275.317l16,16H380.689z"/>
	<path style="fill:#D5D9DE;" d="M208.004,209.007c13.086,0,24.703,6.285,32,16l76-76L187.529,20.533
		c3.867-5.296,7.929-10.482,12.417-15.405C145.584,64.744,136.66,153.781,177.712,222.9
		C185.048,214.397,195.893,209.007,208.004,209.007z"/>
	<path style="fill:#FFCF00;" d="M429.655,46.666c3.134,1.5,6.643,2.341,10.348,2.341c13.255,0,24-10.745,24-24s-10.745-24-24-24
		s-24,10.745-24,24c0,3.705,0.841,7.213,2.34,10.346C420.708,40.295,424.713,44.301,429.655,46.666z"/>
	<path style="fill:#888693;" d="M247.983,248.204c0.005,0.268,0.02,0.534,0.02,0.803c0,22.092-17.909,40-40,40s-40-17.908-40-40
		c0-0.278,0.015-0.552,0.021-0.829l-30.753,176.829h141.46l-22.646-130.214L247.983,248.204z"/>
	<path style="fill:#B6B8BE;" d="M120.002,425.007c-8.82,0-16,7.176-16,16v24h208v-24c0-8.824-7.18-16-16-16h-17.27h-141.46H120.002z
		"/>
	<path style="fill:#888693;" d="M80.002,465.007c-13.234,0-24,10.766-24,24h304c0-13.234-10.766-24-24-24h-24h-208H80.002z"/>
	<path style="fill:#5C546A;" d="M48.002,489.007c-4.422,0-8,3.582-8,8s3.578,8,8,8h320c4.422,0,8-3.582,8-8s-3.578-8-8-8h-8h-304
		H48.002z"/>
	<path style="fill:#B6B8BE;" d="M208.004,289.007c22.091,0,40-17.908,40-40c0-0.269-0.015-0.535-0.02-0.803l8.102,46.589
		c25.517,12.37,52.864,18.472,80.064,18.472c44.633-0.004,88.836-16.383,123.734-48.207c-3.52,3.21-7.198,6.15-10.898,9.044
		c-1.482,1.146-2.95,2.32-4.455,3.425l-0.004,0.003L316.004,149.007l25.656-25.656l-5.657-5.658l-44.686-44.686l-16-16
		L223.033,4.722c-3.094-3.098-7.438-4.852-11.789-4.715c-4.375,0.105-8.383,1.926-11.297,5.121
		c-4.489,4.922-8.551,10.109-12.417,15.405l128.474,128.474l-76,76c-7.298-9.715-18.914-16-32-16
		c-12.111,0-22.956,5.39-30.291,13.893c-5.876,6.812-9.491,15.623-9.688,25.278c-0.006,0.277-0.021,0.551-0.021,0.829
		C168.004,271.099,185.912,289.007,208.004,289.007z M224.004,249.007c0,8.837-7.163,16-16,16s-16-7.163-16-16
		c0-8.836,7.163-16,16-16S224.004,240.171,224.004,249.007z"/>
	<circle style="fill:#5C546A;" cx="208.004" cy="249.007" r="16"/>
	<path style="fill:#888693;" d="M347.315,129.006l-5.655-5.655l0,0l-25.656,25.656l128.523,128.524l0.004-0.003
		c1.504-1.105,2.972-2.279,4.455-3.425c3.7-2.895,7.378-5.834,10.898-9.044c3.203-2.918,5.023-6.938,5.117-11.313
		c0.102-4.383-1.617-8.672-4.711-11.762l-52.289-52.29l-16-16L347.315,129.006z"/>
</g>
<g>
</g>
<g>
</g>
<g>
</g>
<g>
</g>
<g>
</g>
<g>
</g>
<g>
</g>
<g>
</g>
<g>
</g>
<g>
</g>
<g>
</g>
<g>
</g>
<g>
</g>
<g>
</g>
<g>
</g>
</svg>
